<svg width="14" height="14" viewBox="0 0 14 14" fill="none" xmlns="http://www.w3.org/2000/svg">
<g clip-path="url(#clip0_6_61)">
<path d="M14 13.6381L13.4808 11.5585C13.359 11.0734 13.1255 10.6235 12.7988 10.2447C12.4722 9.86589 12.0615 9.5687 11.5996 9.37687L9.625 8.55437V7.88937C10.0602 7.67347 10.4269 7.34105 10.6844 6.92909C10.9419 6.51714 11.08 6.04182 11.0833 5.55604H11.2292C11.4999 5.55604 11.7596 5.44848 11.951 5.25704C12.1424 5.0656 12.25 4.80594 12.25 4.5352C12.25 4.26446 12.1424 4.00481 11.951 3.81336C11.7596 3.62192 11.4999 3.51437 11.2292 3.51437C10.9375 3.51437 11.2029 3.59895 10.99 2.82312C11.7717 2.01812 11.6667 1.19854 11.6667 0.291452C11.6664 0.238928 11.6519 0.187452 11.6248 0.142459C11.5977 0.097467 11.559 0.0606281 11.5127 0.0358331C11.4664 0.0110381 11.4142 -0.000792867 11.3618 0.00158963C11.3093 0.00397212 11.2585 0.0204796 11.2146 0.049369C9.41208 1.24812 7.65333 -0.108131 6.70833 1.18104C6.56364 1.15917 6.41593 1.16885 6.27533 1.20941C6.13472 1.24997 6.00455 1.32046 5.89374 1.41603C5.78293 1.51161 5.69409 1.63002 5.63332 1.76314C5.57255 1.89626 5.54129 2.04095 5.54167 2.18729V3.51437C5.27093 3.53371 5.01895 3.65981 4.84119 3.86492C4.66342 4.07004 4.57441 4.33738 4.59375 4.60812C4.61309 4.87886 4.73919 5.13083 4.94431 5.3086C5.14942 5.48637 5.41676 5.57537 5.6875 5.55604H5.83333C5.834 6.0443 5.97083 6.52271 6.22845 6.93748C6.48608 7.35225 6.85427 7.68695 7.29167 7.90395V8.56895L6.08125 9.07354C6.03645 8.84414 5.95259 8.62414 5.83333 8.42312V7.11937C5.83344 6.98009 5.79216 6.84393 5.71475 6.72815C5.63734 6.61237 5.52727 6.5222 5.39853 6.46908C5.26978 6.41596 5.12816 6.40228 4.99163 6.42978C4.85509 6.45728 4.72981 6.52471 4.63167 6.62354C3.8325 7.4227 4.01917 7.29145 3.79167 7.29145C3.56417 7.29145 3.75083 7.4227 2.95167 6.62354C2.85353 6.52471 2.72824 6.45728 2.59171 6.42978C2.45517 6.40228 2.31355 6.41596 2.18481 6.46908C2.05606 6.5222 1.946 6.61237 1.86859 6.72815C1.79117 6.84393 1.7499 6.98009 1.75 7.11937V8.42312C1.55842 8.74193 1.45757 9.10701 1.45833 9.47895C1.45833 9.97479 1.59542 9.8552 1.365 9.93104C1.29892 9.95275 1.24277 9.99737 1.20669 10.0568C1.1706 10.1163 1.15696 10.1867 1.16823 10.2554C1.17949 10.324 1.21492 10.3864 1.26812 10.4312C1.32131 10.476 1.38877 10.5003 1.45833 10.4998C1.50208 10.4998 1.50792 10.4998 1.6975 10.4356C1.74999 10.5381 1.81148 10.6357 1.88125 10.7273L1.65667 10.8002C1.58445 10.8168 1.52126 10.8602 1.47991 10.9217C1.43856 10.9832 1.42216 11.0581 1.43404 11.1312C1.44592 11.2044 1.48519 11.2702 1.54387 11.3155C1.60255 11.3607 1.67625 11.3819 1.75 11.3748C1.81417 11.3748 1.79083 11.3748 2.33333 11.191C2.37325 11.2228 2.41514 11.252 2.45875 11.2785C2.23534 11.4711 2.05629 11.7098 1.93394 11.9781C1.81159 12.2465 1.74884 12.5382 1.75 12.8331H1.45833C1.38098 12.8331 1.30679 12.8024 1.25209 12.7477C1.1974 12.693 1.16667 12.6188 1.16667 12.5415V12.2498C1.16667 11.3748 0 11.1065 0 11.6665C0 11.7438 0.0307291 11.818 0.0854272 11.8727C0.140125 11.9274 0.214312 11.9581 0.291667 11.9581C0.369022 11.9581 0.443208 11.9888 0.497906 12.0435C0.552604 12.0982 0.583333 12.1724 0.583333 12.2498V12.5415C0.583333 12.7735 0.675521 12.9961 0.839615 13.1602C1.00371 13.3243 1.22627 13.4165 1.45833 13.4165H1.75C1.75 13.5712 1.81146 13.7195 1.92085 13.8289C2.03025 13.9383 2.17862 13.9998 2.33333 13.9998H5.25C5.40471 13.9998 5.55308 13.9383 5.66248 13.8289C5.77188 13.7195 5.83333 13.5712 5.83333 13.4165C5.83333 12.696 5.90333 11.9581 5.11292 11.2785C5.28792 11.1648 5.13333 11.156 5.74 11.3602C5.81349 11.385 5.8938 11.3795 5.96326 11.345C6.03273 11.3106 6.08566 11.2499 6.11042 11.1765C6.13517 11.103 6.12972 11.0227 6.09526 10.9532C6.0608 10.8837 6.00015 10.8308 5.92667 10.806L5.70208 10.7331C5.95875 10.389 5.80708 10.4094 6.03167 10.4852C6.06805 10.4975 6.1065 10.5024 6.14481 10.4998C6.18311 10.4972 6.22053 10.4871 6.25493 10.47C6.28933 10.453 6.32003 10.4293 6.34527 10.4004C6.37052 10.3715 6.38983 10.3378 6.40208 10.3015C6.41434 10.2651 6.41931 10.2266 6.41671 10.1883C6.41411 10.15 6.40399 10.1126 6.38692 10.0782C6.36986 10.0438 6.34619 10.0131 6.31726 9.98784C6.28834 9.9626 6.25472 9.94329 6.21833 9.93104C6.03458 9.86979 6.09 9.93104 6.11333 9.67729L7.50458 9.09395C7.76065 9.34096 8.10255 9.47899 8.45833 9.47899C8.81412 9.47899 9.15602 9.34096 9.41208 9.09395L11.375 9.91645C11.7526 10.0737 12.0881 10.3169 12.355 10.6269C12.6219 10.9368 12.8126 11.3047 12.9121 11.7015L13.4167 13.7781C13.4259 13.8164 13.4425 13.8525 13.4657 13.8844C13.4888 13.9163 13.518 13.9433 13.5516 13.9639C13.5852 13.9844 13.6225 13.9982 13.6614 14.0044C13.7003 14.0105 13.74 14.009 13.7783 13.9998C13.8166 13.9906 13.8528 13.9739 13.8846 13.9508C13.9165 13.9276 13.9435 13.8984 13.9641 13.8649C13.9847 13.8313 13.9984 13.794 14.0046 13.7551C14.0108 13.7162 14.0092 13.6764 14 13.6381ZM5.04292 7.03479C5.06043 7.01962 5.0818 7.00961 5.10466 7.00585C5.12752 7.0021 5.15098 7.00474 5.17243 7.0135C5.19387 7.02226 5.21247 7.03679 5.22617 7.05548C5.23986 7.07417 5.24811 7.09628 5.25 7.11937V7.7727C5.06272 7.634 4.85643 7.523 4.6375 7.44312L5.04292 7.03479ZM2.54042 7.03479L2.94583 7.44312C2.7269 7.523 2.52061 7.634 2.33333 7.7727V7.11937C2.33522 7.09628 2.34347 7.07417 2.35717 7.05548C2.37086 7.03679 2.38946 7.02226 2.41091 7.0135C2.43235 7.00474 2.45581 7.0021 2.47867 7.00585C2.50153 7.00961 2.5229 7.01962 2.54042 7.03479ZM5.25 12.8331V13.4165H4.66667C4.68962 13.2733 4.75815 13.1413 4.86208 13.0402C4.88942 13.0131 4.91112 12.9808 4.92593 12.9453C4.94073 12.9097 4.94836 12.8716 4.94836 12.8331C4.94836 12.7946 4.94073 12.7565 4.92593 12.721C4.91112 12.6854 4.88942 12.6532 4.86208 12.626C4.5325 12.2994 4.13 12.9177 4.08333 13.4165H3.5C3.47331 13.1188 3.3445 12.8396 3.13542 12.626C3.08049 12.5711 3.006 12.5403 2.92833 12.5403C2.85066 12.5403 2.77617 12.5711 2.72125 12.626C2.66633 12.681 2.63547 12.7554 2.63547 12.8331C2.63547 12.9108 2.66633 12.9853 2.72125 13.0402C2.82518 13.1413 2.89371 13.2733 2.91667 13.4165H2.33333V12.8331C2.33384 12.5736 2.40358 12.319 2.53534 12.0954C2.66711 11.8719 2.85614 11.6876 3.08292 11.5615C3.54504 11.7015 4.03829 11.7015 4.50042 11.5615C4.7272 11.6876 4.91622 11.8719 5.04799 12.0954C5.17976 12.319 5.24949 12.5736 5.25 12.8331ZM5.34333 9.62479C5.30695 9.61253 5.2685 9.60756 5.23019 9.61016C5.19189 9.61276 5.15447 9.62288 5.12007 9.63995C5.08567 9.65701 5.05497 9.68068 5.02973 9.70961C5.00448 9.73853 4.98517 9.77215 4.97292 9.80854C4.96066 9.84492 4.95569 9.88337 4.95829 9.92167C4.96089 9.95998 4.97101 9.9974 4.98808 10.0318C5.00514 10.0662 5.02881 10.0969 5.05774 10.1221C5.08666 10.1474 5.12028 10.1667 5.15667 10.179L5.32583 10.2344C5.26441 10.3397 5.191 10.4376 5.10708 10.526C4.79208 10.421 4.62875 10.6427 4.68125 10.8498C4.40804 10.9976 4.1023 11.075 3.79167 11.075C3.48103 11.075 3.1753 10.9976 2.90208 10.8498C2.95458 10.6427 2.79417 10.4181 2.47625 10.526C2.39233 10.4376 2.31892 10.3397 2.2575 10.2344L2.42667 10.2081C2.46305 10.1959 2.49667 10.1766 2.5256 10.1513C2.55452 10.1261 2.57819 10.0954 2.59526 10.061C2.61232 10.0266 2.62244 9.98915 2.62504 9.95084C2.62764 9.91253 2.62267 9.87409 2.61042 9.8377C2.59816 9.80132 2.57886 9.7677 2.55361 9.73877C2.52836 9.70984 2.49766 9.68617 2.46326 9.66911C2.42887 9.65205 2.39145 9.64193 2.35314 9.63933C2.31483 9.63673 2.27639 9.6417 2.24 9.65395L2.05917 9.7152C1.91042 8.70895 2.75625 7.87479 3.79167 7.87479C4.82708 7.87479 5.67292 8.70895 5.52417 9.70062L5.34333 9.62479ZM11.2292 4.08312C11.3452 4.08312 11.4565 4.12921 11.5385 4.21126C11.6206 4.29331 11.6667 4.40459 11.6667 4.52062C11.6667 4.63665 11.6206 4.74793 11.5385 4.82998C11.4565 4.91203 11.3452 4.95812 11.2292 4.95812H11.0833V4.08312H11.2292ZM7.875 1.16645C9.40917 1.16645 10.1238 1.25687 11.0833 0.793119V1.16645C11.0833 1.63058 10.899 2.0757 10.5708 2.40389C10.2426 2.73208 9.79746 2.91645 9.33333 2.91645H7.875C7.64294 2.91645 7.42038 2.82427 7.25628 2.66017C7.09219 2.49608 7 2.27352 7 2.04145C7 1.80939 7.09219 1.58683 7.25628 1.42273C7.42038 1.25864 7.64294 1.16645 7.875 1.16645ZM6.125 2.18729C6.12566 2.09237 6.15696 2.0002 6.21425 1.92452C6.27153 1.84883 6.35174 1.79369 6.44292 1.76729C6.40044 1.98486 6.40917 2.20933 6.46839 2.42295C6.52762 2.63657 6.63573 2.83348 6.78417 2.99812C6.62651 3.2261 6.39284 3.3905 6.125 3.46187V2.18729ZM5.6875 4.95812C5.57147 4.95812 5.46019 4.91203 5.37814 4.82998C5.29609 4.74793 5.25 4.63665 5.25 4.52062C5.25 4.40459 5.29609 4.29331 5.37814 4.21126C5.46019 4.12921 5.57147 4.08312 5.6875 4.08312H5.83333V4.95812H5.6875ZM6.41667 5.54145V3.98104C6.75203 3.86171 7.04303 3.64295 7.25083 3.35395C7.4455 3.44825 7.6587 3.49807 7.875 3.49979C9.33333 3.49979 9.8 3.57854 10.4738 3.20812C10.5088 3.44145 10.5 3.26937 10.5 5.54145C10.5 6.08294 10.2849 6.60224 9.90201 6.98513C9.51912 7.36802 8.99982 7.58312 8.45833 7.58312C7.91685 7.58312 7.39754 7.36802 7.01466 6.98513C6.63177 6.60224 6.41667 6.08294 6.41667 5.54145ZM7.875 8.63895V8.09937C8.25864 8.18977 8.65803 8.18977 9.04167 8.09937V8.63895C8.96859 8.72157 8.8788 8.78773 8.77824 8.83304C8.67768 8.87835 8.56863 8.90178 8.45833 8.90178C8.34803 8.90178 8.23899 8.87835 8.13843 8.83304C8.03787 8.78773 7.94807 8.72157 7.875 8.63895Z" fill="white"/>
<path d="M11.0833 11.6667V13.7083C11.0833 13.7857 11.1141 13.8599 11.1688 13.9146C11.2235 13.9693 11.2976 14 11.375 14C11.4523 14 11.5265 13.9693 11.5812 13.9146C11.6359 13.8599 11.6667 13.7857 11.6667 13.7083V11.6667C11.6667 11.5893 11.6359 11.5151 11.5812 11.4604C11.5265 11.4057 11.4523 11.375 11.375 11.375C11.2976 11.375 11.2235 11.4057 11.1688 11.4604C11.1141 11.5151 11.0833 11.5893 11.0833 11.6667ZM3.00124 8.83459C2.94632 8.88951 2.91547 8.964 2.91547 9.04167C2.91547 9.11934 2.94632 9.19383 3.00124 9.24875C3.05616 9.30367 3.13065 9.33453 3.20833 9.33453C3.286 9.33453 3.36049 9.30367 3.41541 9.24875C3.4426 9.22156 3.46418 9.18927 3.47889 9.15374C3.49361 9.11821 3.50119 9.08013 3.50119 9.04167C3.50119 9.00321 3.49361 8.96513 3.47889 8.9296C3.46418 8.89407 3.4426 8.86178 3.41541 8.83459C3.38822 8.80739 3.35593 8.78582 3.3204 8.7711C3.28487 8.75638 3.24679 8.74881 3.20833 8.74881C3.16987 8.74881 3.13178 8.75638 3.09625 8.7711C3.06072 8.78582 3.02844 8.80739 3.00124 8.83459ZM4.26416 8.77334C4.21521 8.79344 4.17266 8.82649 4.14106 8.86893C4.10946 8.91137 4.09 8.96161 4.08476 9.01427C4.07953 9.06692 4.08871 9.12001 4.11134 9.16784C4.13397 9.21568 4.16918 9.25645 4.21321 9.2858C4.25724 9.31516 4.30842 9.33198 4.36128 9.33447C4.41413 9.33696 4.46667 9.32502 4.51326 9.29993C4.55985 9.27485 4.59874 9.23756 4.62576 9.19207C4.65279 9.14657 4.66692 9.09458 4.66666 9.04167C4.66642 8.9939 4.65445 8.94692 4.63181 8.90486C4.60916 8.8628 4.57653 8.82694 4.53678 8.80044C4.49704 8.77394 4.45139 8.75761 4.40385 8.75289C4.35632 8.74816 4.30835 8.75518 4.26416 8.77334ZM3.93749 9.625C3.72166 9.625 3.50874 9.58417 3.39791 9.76209C3.28708 9.94 3.36291 10.0042 3.53208 10.3454C3.55655 10.3932 3.59374 10.4333 3.63954 10.4613C3.68534 10.4893 3.73798 10.5041 3.79166 10.5041C3.84534 10.5041 3.89798 10.4893 3.94378 10.4613C3.98958 10.4333 4.02677 10.3932 4.05124 10.3454L4.19708 10.0538C4.22083 10.0092 4.23258 9.95914 4.23119 9.90863C4.2298 9.85812 4.21531 9.80883 4.18914 9.7656C4.16297 9.72238 4.12601 9.68669 4.0819 9.66204C4.03778 9.6374 3.98802 9.62463 3.93749 9.625ZM7.87499 4.375C7.87499 4.29765 7.84426 4.22346 7.78957 4.16876C7.73487 4.11407 7.66068 4.08334 7.58333 4.08334C7.50597 4.08334 7.43178 4.11407 7.37709 4.16876C7.32239 4.22346 7.29166 4.29765 7.29166 4.375C7.29166 4.45236 7.32239 4.52654 7.37709 4.58124C7.43178 4.63594 7.50597 4.66667 7.58333 4.66667C7.66068 4.66667 7.73487 4.63594 7.78957 4.58124C7.84426 4.52654 7.87499 4.45236 7.87499 4.375ZM9.33333 4.66667C9.41068 4.66667 9.48487 4.63594 9.53957 4.58124C9.59426 4.52654 9.62499 4.45236 9.62499 4.375C9.62499 4.29765 9.59426 4.22346 9.53957 4.16876C9.48487 4.11407 9.41068 4.08334 9.33333 4.08334C9.25597 4.08334 9.18178 4.11407 9.12709 4.16876C9.07239 4.22346 9.04166 4.29765 9.04166 4.375C9.04166 4.45236 9.07239 4.52654 9.12709 4.58124C9.18178 4.63594 9.25597 4.66667 9.33333 4.66667ZM9.28374 6.65875C9.33866 6.60383 9.36952 6.52934 9.36952 6.45167C9.36952 6.374 9.33866 6.29951 9.28374 6.24459C9.22882 6.18966 9.15433 6.15881 9.07666 6.15881C8.99899 6.15881 8.9245 6.18966 8.86958 6.24459C8.76028 6.35323 8.61243 6.41421 8.45833 6.41421C8.30422 6.41421 8.15637 6.35323 8.04708 6.24459C8.01996 6.21725 7.9877 6.19555 7.95216 6.18074C7.91662 6.16594 7.8785 6.15831 7.83999 6.15831C7.80149 6.15831 7.76337 6.16594 7.72782 6.18074C7.69228 6.19555 7.66002 6.21725 7.63291 6.24459C7.19541 6.685 8.50208 7.44042 9.28374 6.65875Z" fill="white"/>
</g>
<defs>
<clipPath id="clip0_6_61">
<rect width="14" height="14" fill="white"/>
</clipPath>
</defs>
</svg>
