<svg width="14" height="14" viewBox="0 0 14 14" fill="none" xmlns="http://www.w3.org/2000/svg">
<path d="M8.10945 5.82969C7.63084 5.37644 6.99674 5.12384 6.33758 5.12384C5.67841 5.12384 5.04431 5.37644 4.5657 5.82969L2.42851 7.85094C1.20351 8.96438 2.08726 11.0928 3.74101 11.0097C4.63789 10.9856 5.36633 10.5263 6.33539 10.5438C7.33945 10.5263 8.08539 10.9309 8.98664 11.0097C10.612 11.0469 11.452 8.9425 10.2445 7.85094L8.10945 5.82969ZM10.2751 9.695C10.1709 9.96124 9.98649 10.1885 9.74741 10.3453C9.50833 10.502 9.22641 10.5806 8.9407 10.57C8.09851 10.4475 7.35695 10.0931 6.33758 10.1063C5.3182 10.1194 4.58758 10.5438 3.68633 10.5722C3.40645 10.5742 3.13249 10.4916 2.90035 10.3353C2.66821 10.1789 2.48871 9.95612 2.38538 9.69601C2.28205 9.4359 2.2597 9.15065 2.32126 8.87762C2.38282 8.60459 2.52543 8.35653 2.73039 8.16594L4.86539 6.15563C5.26336 5.77965 5.79009 5.57018 6.33758 5.57018C6.88506 5.57018 7.41179 5.77965 7.80976 6.15563L9.94476 8.17688C10.1466 8.36702 10.2862 8.61379 10.3451 8.88476C10.4041 9.15572 10.3797 9.43818 10.2751 9.695Z" fill="#7A7A80"/>
<path d="M11.7888 2.85907C10.9532 2.695 10.3145 3.62469 10.1482 4.42532C9.64946 6.90375 12.0513 7.37625 12.6135 4.97219C12.8432 3.94188 12.4801 3.01219 11.7888 2.85907ZM12.187 4.87813C11.7188 6.7375 10.2182 6.40938 10.5748 4.52157C10.9554 2.83063 12.5304 2.80875 12.187 4.87813Z" fill="#7A7A80"/>
<path d="M8.24725 4.19781C9.0785 4.19781 9.75444 3.25281 9.75444 2.09344C9.67131 -0.697813 6.82319 -0.697813 6.74225 2.09344C6.74225 3.25281 7.41819 4.19781 8.24725 4.19781ZM8.24725 0.426563C9.65819 0.522813 9.65819 3.66406 8.24725 3.76031C6.83631 3.66406 6.8385 0.522813 8.24725 0.426563Z" fill="#7A7A80"/>
<path d="M2.52696 4.42532C2.3629 3.62469 1.72196 2.695 0.88634 2.85907C-0.66241 3.25063 -0.00615992 6.55157 1.50759 6.56032C2.36509 6.53188 2.76103 5.53657 2.52696 4.42532ZM1.60821 6.11188C0.529778 6.27375 -0.0652224 3.59407 0.980403 3.28782C1.6104 3.22657 1.96478 3.96813 2.1004 4.52157C2.27103 5.28063 2.04571 6.01563 1.60821 6.11188Z" fill="#7A7A80"/>
<path d="M4.4279 4.19781C5.25697 4.19781 5.9329 3.25281 5.9329 2.09344C5.85197 -0.697813 3.00384 -0.697813 2.92072 2.09344C2.92072 3.25281 3.59665 4.19781 4.4279 4.19781ZM4.4279 0.426563C5.83884 0.522813 5.83665 3.66406 4.4279 3.76031C3.01697 3.66406 3.01697 0.522813 4.4279 0.426563Z" fill="#7A7A80"/>
</svg>
