<svg width="300" height="213" viewBox="0 0 300 213" fill="none" xmlns="http://www.w3.org/2000/svg">
<path d="M136.806 106.092C136.806 106.092 112.214 70.2366 139.241 43.6754C145.835 37.1938 152.992 30.9168 161.246 26.6272C168.49 22.8637 177.335 22.2469 183.939 17.3673C184.218 17.1626 184.488 16.9511 184.755 16.7326C191.114 11.5149 197.284 5.30702 204.704 1.59745C206.91 0.493269 209.387 -0.196295 211.841 0.0497756C222.927 1.1596 220.375 15.9015 218.972 23.1361C216.653 35.0777 213.056 46.7714 208.263 57.9516C206.556 61.9364 204.374 65.9137 203.04 70.0228C201.628 74.3764 201.386 79.0201 201.292 83.563C201.157 89.946 201.371 96.9948 198.455 102.87C196.007 107.807 190.988 110.713 185.881 112.236C162.649 119.167 137.487 112.56 136.806 106.092Z" fill="#12A454"/>
<path d="M212.717 34.1031C212.252 34.6464 211.917 35.288 211.452 35.841C210.777 36.6499 209.989 37.3652 209.192 38.0475C207.171 39.7763 204.924 41.2483 202.626 42.5819C200.445 43.8493 198.166 44.9908 195.787 45.8379C195.643 45.8894 194.343 46.2243 194.199 46.273C194.415 46.0727 202.698 35.9154 207.563 22.4977C208.643 19.516 209.955 17.1067 210.517 13.3394C210.636 12.5369 209.33 12.1536 209.016 12.9323C207.72 16.1419 207.158 18.1133 206.308 20.7714C205.501 23.2858 204.208 25.9107 203.207 28.355C202.353 30.4338 201.361 32.4657 200.225 34.4114C200.448 32.708 200.432 30.9579 200.391 29.2561C200.338 26.9222 200.137 24.5943 199.88 22.2752C199.773 21.3066 199.66 20.3361 199.513 19.3722C199.406 18.6547 199.406 17.6792 198.916 17.1045C198.684 16.8283 198.311 17.0267 198.198 17.2947C197.956 17.8748 198.204 18.7109 198.276 19.3141C198.383 20.2112 198.499 21.1085 198.602 22.0068C198.854 24.2183 199.039 26.4398 199.133 28.6639C199.221 30.6842 199.205 32.7127 198.982 34.7249C198.894 35.5256 198.737 36.3225 198.483 37.088C198.471 37.1254 198.455 37.1693 198.439 37.2123C197.626 38.3871 196.754 39.5186 195.815 40.5951C193.336 43.4406 190.781 46.2645 187.821 48.6241C187.328 49.0187 186.82 49.3991 186.302 49.7613C185.809 50.1037 184.971 50.7553 184.416 50.979C184.447 50.8136 185.238 46.9864 185.411 45.3653C185.549 44.0746 185.605 42.7762 185.634 41.479C185.696 38.8469 185.558 36.2148 185.417 33.5875C185.348 32.3213 185.279 31.0555 185.21 29.7891C185.15 28.6064 185.216 27.3384 184.93 26.1847C184.836 25.8159 184.271 25.8124 184.183 26.1847C183.678 28.2643 184.121 30.7652 184.231 32.8813C184.359 35.3903 184.478 37.8994 184.488 40.4115C184.494 42.8562 184.353 45.2981 183.907 47.7048C183.738 48.6295 183.44 50.2377 183.129 51.1253C181.239 52.1513 179.771 52.823 177.903 53.8842C175.995 54.9664 173.838 56.3308 172.046 57.5938C167.263 60.9665 162.455 64.1981 159.14 69.0677C157.712 71.1631 156.579 73.5431 156.249 76.0744C155.92 78.6161 156.654 80.7755 158.101 82.8454C158.575 83.5218 159.617 82.9362 159.219 82.1926C157.248 78.5358 158.751 74.2233 160.86 71.0124C163.503 66.9915 167.357 63.7191 171.246 60.9552C172.21 60.2688 173.198 59.6034 174.203 58.9609C175.279 58.9365 176.638 58.8112 176.88 58.8068C179.604 58.7585 182.329 58.7955 185.053 58.8382C187.818 58.8803 190.586 58.9377 193.351 58.9967C194.453 59.0203 195.555 59.0444 196.656 59.067C197.331 59.0802 198.1 59.1885 198.75 58.9688C199.24 58.8031 199.24 58.143 198.75 57.9767C198.056 57.7397 197.218 57.8373 196.49 57.8254C195.219 57.8047 193.948 57.7802 192.673 57.7573C189.434 57.7001 186.198 57.6581 182.959 57.66C180.681 57.6615 178.383 57.6493 176.105 57.7896C178.032 56.6481 180.078 55.7266 182.062 54.7235C186.641 52.4109 190.122 50.4474 193.593 47.5337C194.315 47.385 194.987 47.1744 195.385 47.0576C198.025 46.2808 200.548 45.0461 202.946 43.7099C205.366 42.3603 207.701 40.8186 209.836 39.0471C211.104 37.9938 213.382 36.2396 213.498 34.4261C213.524 34.0401 212.974 33.8053 212.717 34.1031Z" fill="white"/>
<path d="M31.2235 132.502C31.2235 132.502 2.29663 138.901 0.256348 149.98C-2.98705 167.594 25.3452 166.172 40.1063 170.384C54.8676 174.597 14.5786 181.073 27.3609 186.928C32.9518 189.489 57.4902 189.162 82.8538 188.834C106.796 188.525 131.473 188.217 141.645 190.337C152.921 192.687 134.002 195.044 122.931 198.51C108.935 202.891 140.063 212.8 174.052 212.8C208.041 212.8 272.892 200.827 261.78 182.68C257.502 175.69 238.906 164.512 259.982 161.147C276.773 158.466 299.541 134.512 245.19 131.64C208.738 129.714 130.916 124.175 121.109 122.967C111.234 121.75 8.04946 105.5 31.2235 132.502Z" fill="#D3D6FF"/>
<path d="M38.9487 149.618C37.5442 149.832 36.2002 150.599 35.2884 151.686C34.2715 152.898 33.3967 154.958 34.279 156.462C34.5709 156.96 35.0737 157.166 35.5637 157.122C35.8684 157.304 36.2168 157.415 36.5781 157.419C38.6747 157.441 40.7713 157.406 42.8676 157.388C44.0305 157.378 44.7561 156.485 44.8588 155.397C45.199 151.792 42.5742 149.062 38.9487 149.618Z" fill="#9C9C9B"/>
<path d="M193.659 183.185C192.438 181.175 190.48 179.875 188.079 180.202C186.974 180.352 185.875 181.074 185.254 182.043C184.02 182.843 183.606 184.964 185.225 185.711C187.473 186.749 190.037 187.144 192.407 186.268C193.643 185.811 194.412 184.422 193.659 183.185Z" fill="#E7E7E6"/>
<path d="M55.9906 156.215C55.9906 156.215 53.6351 160.667 54.6052 162.527C55.3868 164.025 57.6143 164.48 59.1145 164.796C63.3643 165.689 67.0428 164.705 70.5267 162.213C73.3734 160.178 70.9347 155.08 70.9347 155.08C70.9347 155.08 58.1259 153.318 55.9906 156.215Z" fill="#E3B621"/>
<path d="M46.5734 137.514C46.5734 137.514 45.5663 142.14 46.5734 146.585C47.5816 151.029 46.3132 156.854 46.3443 159.051C46.376 161.247 48.5373 169.211 49.1942 174.14C49.8511 179.068 48.4877 179.207 49.5614 181.079C50.6355 182.951 50.7162 183.66 52.8639 182.584C55.0111 181.507 55.4451 183.726 56.4467 182.241C57.4479 180.757 57.7555 180.387 57.1717 178.028C56.5879 175.67 54.7449 173.761 54.6052 171.088C54.4662 168.414 54.1143 166.996 55.5757 164.386C57.0367 161.775 56.8076 160.36 57.0838 158.745C57.3632 157.129 62.0617 156.08 63.97 156.518C65.8187 156.943 66.9203 158.3 70.2661 161.233C73.546 164.104 73.7061 164.756 74.2052 165.512C74.7011 166.267 74.563 165.436 73.7093 168.808C72.9152 171.945 70.0182 172.978 70.7432 174.807C71.4683 176.636 73.2604 179.85 74.2742 180.822C75.2911 181.793 75.7965 182.962 77.1775 181.634C78.5585 180.308 78.5742 181.292 80.0839 180.308C81.5936 179.323 76.9389 175.284 77.6483 172.802C78.3545 170.32 81.6752 163.151 81.9043 158.995C82.1334 154.839 80.812 149.904 82.5069 146.197C84.2018 142.491 86.336 138.064 86.336 138.064C86.336 138.064 69.4595 122.894 65.2412 128.195C61.0228 133.494 46.5734 137.514 46.5734 137.514Z" fill="#FAD23A"/>
<path d="M64.5915 122.602C64.5915 122.602 68.4803 123.834 69.0986 125.615C69.7138 127.395 68.8537 137.514 68.8537 137.514C68.8537 137.514 67.1589 132.279 64.7107 130.224C62.2657 128.168 60.913 122.59 63.3329 122.401C65.7496 122.21 64.5915 122.602 64.5915 122.602Z" fill="#E3B621"/>
<path d="M46.1255 136.452C46.1255 136.452 47.2809 141.447 46.9272 144.016C46.5734 146.585 47.6042 153.02 50.1961 154.084C52.7886 155.147 55.1476 155.613 57.6268 154.084C60.1095 152.555 70.6302 151.238 70.9347 147.779C71.236 144.321 83.2696 144.577 84.0323 144.004C84.7918 143.431 85.724 139.119 85.724 139.119L73.1223 129.165L64.3969 129.932L46.1255 136.452Z" fill="#E3B621"/>
<path d="M40.2898 136.212C40.2898 136.212 43.5801 132.588 43.4222 128.462C43.2643 124.337 47.5756 125.012 48.1851 123.327C48.7953 121.642 38.8216 125.158 38.2673 126.042C37.6361 127.051 40.2898 136.212 40.2898 136.212Z" fill="#E3B621"/>
<path d="M48.1723 122.871C47.8069 123.043 46.6026 122.677 46.1908 122.628C45.6366 122.561 45.0851 122.497 44.528 122.46C43.4922 122.393 42.4502 122.373 41.4145 122.445C39.772 122.56 37.4456 122.872 36.5957 124.517C34.795 128.005 36.3948 131.507 37.1873 132.759C37.9798 134.011 39.907 137.878 40.2899 135.601C40.6386 133.526 40.4813 131.416 40.5519 129.324C40.6131 127.516 40.5695 125.349 42.3444 124.352C43.0892 123.934 43.9404 123.753 44.7769 123.579C45.9106 123.342 47.0445 123.105 48.1723 122.871Z" fill="#FAD23A"/>
<path d="M62.4886 122.661C62.4886 122.661 69.516 124.619 68.8537 128.157C68.1915 131.695 67.8054 135.577 68.8537 137.514C69.9021 139.451 69.3026 139.273 70.6334 137.514C71.9642 135.756 76.1229 130.613 75.74 127.021C75.357 123.43 71.8857 119.604 62.4886 122.661Z" fill="#FAD23A"/>
<path d="M42.8704 127.45C42.8704 127.45 42.1257 130.354 44.3714 134.726C46.6177 139.098 47.8951 139.106 48.3166 143.891C48.7388 148.675 50.6866 154.53 55.0544 151.875C59.4221 149.22 61.4811 142.836 63.2356 140.835C64.9932 138.834 68.5336 129.113 65.8438 125.357C63.1571 121.601 46.4319 118.907 42.8704 127.45Z" fill="#FAD23A"/>
<path d="M51.3969 144.716C51.3969 144.716 53.2528 144.377 54.2609 144.943C55.2697 145.509 53.841 147.662 52.8212 147.776C51.8012 147.889 50.5636 145.151 51.3969 144.716Z" fill="#E72A86"/>
<path d="M50.1961 140.642C50.1961 140.642 50.3474 140.055 52.8639 139.986C55.3808 139.916 57.6268 141.289 57.6268 141.289C57.6268 141.289 55.4925 139.297 53.9119 139.149C52.3313 139.001 50.5015 139.385 50.1961 140.642Z" fill="#E3B621"/>
<path d="M171.356 47.9882C171.356 47.9882 175.606 50.6608 176.591 54.4991C177.577 58.3383 178.556 59.9468 178.556 59.9468C178.556 59.9468 181.45 63.2801 182.197 66.1168C182.944 68.9526 182.978 72.8991 180.612 74.3171C178.248 75.7355 167.643 71.643 167.643 71.643C167.643 71.643 165.653 66.5697 165.844 66.4049C166.039 66.2395 165.374 51.9401 165.374 51.9401L171.356 47.9882Z" fill="#B3B3B2"/>
<mask id="mask0_88_900" style="mask-type:luminance" maskUnits="userSpaceOnUse" x="165" y="47" width="18" height="28">
<path d="M171.356 47.9882C171.356 47.9882 175.606 50.6608 176.591 54.4991C177.577 58.3383 178.556 59.9468 178.556 59.9468C178.556 59.9468 181.45 63.2801 182.197 66.1168C182.944 68.9526 182.978 72.8991 180.612 74.3171C178.248 75.7355 167.643 71.643 167.643 71.643C167.643 71.643 165.653 66.5697 165.844 66.4049C166.039 66.2395 165.374 51.9401 165.374 51.9401L171.356 47.9882Z" fill="white"/>
</mask>
<g mask="url(#mask0_88_900)">
<path d="M176.152 50.4389C176.152 50.4389 175.841 54.4008 173.559 56.4356C171.28 58.4707 174.058 65.5817 171.99 67.1441C169.921 68.7065 166.161 66.9178 166.409 66.0546C166.654 65.1915 167.888 59.3954 167.888 59.3954L166.409 55.2028C166.409 55.2028 174.997 50.1125 176.152 50.4389Z" fill="#9C9C9B"/>
<path d="M177.727 57.4837C177.727 57.4837 178.845 60.0012 178.637 61.918C178.43 63.8354 177.09 67.8974 177.605 66.8836C178.123 65.8698 179.052 65.1812 179.849 63.3015C180.552 61.6342 179.849 59.9469 179.849 59.9469C179.849 59.9469 178.396 57.4313 177.727 57.4837Z" fill="#9C9C9B"/>
</g>
<path d="M166.168 39.5717C166.168 39.5717 162.919 35.1992 161.576 35.6C160.229 35.9999 160.075 38.5833 160.075 40.9411C160.075 43.2985 160.217 46.1858 161.23 49.0648C162.354 52.2625 164.266 56.1579 166.591 56.1271C168.92 56.0973 172.561 54.1212 174.278 52.2085C175.995 50.2961 178.452 46.6305 178.452 46.6305C178.452 46.6305 181.635 41.9762 181.437 40.7138C181.239 39.4511 180.364 38.276 177.457 40.0487C174.548 41.8224 174.485 41.5139 174.485 41.5139C174.485 41.5139 170.433 38.1226 166.168 39.5717Z" fill="#B3B3B2"/>
<path d="M205.762 105.479C205.762 105.479 225.089 81.2008 229.361 75.7926C233.636 70.385 251.881 63.0512 248.99 94.0755C247.688 108.051 217.776 124.968 210.109 122.689C202.441 120.409 199.444 112.013 205.762 106.893" fill="#71C58A"/>
<path d="M188.461 106.919C188.606 105.702 188.766 101.179 190.454 91.2953C192.143 81.4124 197.099 67.0662 213.819 64.0632C230.535 61.0601 232.591 69.4748 228.42 71.2278C224.251 72.981 216.681 71.7528 215.984 78.3252C215.284 84.8972 221.163 89.049 216.722 96.019C212.284 102.989 193.248 123.15 188.461 117.756C183.672 112.362 188.461 106.919 188.461 106.919Z" fill="#71C58A"/>
<path d="M94.3333 119.563C94.3333 119.563 75.991 89.5631 44.677 89.3268C13.3643 89.0895 18.8036 103.727 21.4623 108.586C24.1208 113.446 36.7636 115.117 49.1525 116.905C61.5407 118.692 79.5251 118.882 82.193 126.412C84.864 133.941 92.8425 151.397 97.8423 142.705C102.839 134.014 94.3333 119.563 94.3333 119.563Z" fill="#12A454"/>
<path d="M212.299 85.2534C210.746 85.152 209.004 85.9125 207.554 86.4003C205.991 86.9247 204.475 87.5738 203.015 88.3312C200.956 89.398 198.992 90.8025 197.479 92.58C198.436 89.7203 199.349 86.8447 200.332 83.986C200.85 82.4839 201.411 81.0078 202.064 79.5737C202.184 79.5659 202.306 79.5448 202.454 79.4642C203.21 79.0496 203.951 78.6133 204.691 78.1767C205.598 77.6444 206.506 77.1155 207.422 76.5964C208.075 76.2245 209.023 75.8761 209.494 75.2713C209.6 75.1353 209.547 74.9009 209.343 74.9065C208.63 74.9247 207.902 75.4524 207.3 75.7891C206.383 76.3007 205.482 76.8381 204.578 77.3716C203.891 77.7775 203.207 78.188 202.526 78.6051C202.959 77.7282 203.43 76.8676 203.957 76.0305C205.639 73.3683 207.934 71.0607 211.298 71.4816C211.606 71.5206 211.716 71.0388 211.452 70.9054C207.447 68.8703 203.869 73.6881 202.124 76.6315C201.069 78.4108 200.253 80.2975 199.541 82.2277C199.541 81.5849 199.547 80.9418 199.557 80.2997C199.579 79.1195 199.691 77.9463 199.914 76.7869C200.096 75.8481 200.558 74.9524 200.658 74.0105C200.68 73.8334 200.435 73.759 200.326 73.8711C199.032 75.1739 198.985 77.8635 198.894 79.5841C198.825 80.9312 198.951 82.2463 199.064 83.5658C198.863 84.1502 198.665 84.7362 198.477 85.3247C196.923 90.1252 195.379 94.9854 193.452 99.6714C193.232 98.4257 192.968 97.1869 192.768 95.9386C192.469 94.0787 192.598 92.0539 192.124 90.2407C192.08 90.0741 191.826 90.0703 191.785 90.2407C191.405 91.8088 191.782 93.5919 191.996 95.17C192.24 96.9832 192.57 98.818 193.069 100.585C192.341 102.294 191.559 103.977 190.709 105.624C190.48 105.767 190.25 105.912 190.024 106.061C189.858 106.171 190.009 106.433 190.185 106.33C190.257 106.286 190.332 106.245 190.407 106.202C189.497 107.914 188.471 109.66 187.04 110.984C186.023 111.922 185.141 112.006 183.939 111.412C183.496 111.192 182.906 111.66 183.217 112.135C184.645 114.329 187.218 112.926 188.584 111.477C190.31 109.646 191.572 107.336 192.655 105.01C195.523 103.598 198.549 102.466 201.43 101.098C203.313 100.203 205.128 99.1727 206.823 97.9574C208.539 96.7289 210.369 95.2393 211.411 93.3756C211.556 93.1142 211.226 92.8816 211.013 93.0674C209.333 94.519 207.924 96.1612 206.104 97.4671C204.415 98.6802 202.563 99.6564 200.699 100.565C198.106 101.829 195.489 102.958 192.972 104.314C193.248 103.706 193.511 103.098 193.772 102.502C194.943 99.8067 195.95 97.0616 196.898 94.2974C198.703 92.101 200.869 90.3656 203.417 89.0211C204.921 88.227 206.515 87.613 208.125 87.0707C209.506 86.6046 211.157 86.4172 212.416 85.6734C212.616 85.5538 212.519 85.2675 212.299 85.2534Z" fill="white"/>
<path d="M21.6287 62.309C21.6563 62.2801 21.6849 62.2515 21.7141 62.223C24.708 59.3053 28.33 58.6534 32.3494 58.3866C35.0615 58.2067 37.7792 58.1094 40.4973 58.1072C65.1219 58.0846 94.1607 66.6177 106.932 89.5537C109.945 94.9613 111.659 101.001 112.381 107.129C112.738 110.147 112.851 113.192 112.776 116.23C112.741 117.592 113.187 123.074 112.07 123.92C111.718 124.189 111.241 124.218 110.796 124.235C99.8165 124.661 87.24 125.818 77.1743 120.515C69.221 116.326 64.1081 108.693 60.9977 100.46C57.1654 90.3079 54.6005 79.2633 43.4065 74.8846C38.4484 72.9449 33.1635 72.1675 28.0406 70.8034C26.3078 70.3417 24.58 69.6217 23.2033 68.4485C21.4802 66.9802 19.7593 64.2587 21.6287 62.309Z" fill="#71C58A"/>
<path d="M111.357 89.7671C106.423 93.7831 110.642 25.8391 82.033 29.7637C63.7409 32.2728 73.7752 65.5453 84.4748 76.8686C95.1745 88.1915 105.915 95.734 104.32 108.87C102.726 122.007 111.357 89.7671 111.357 89.7671Z" fill="#12A454"/>
<path d="M121.571 137.782C121.571 137.782 115.846 139.821 120.284 144.589C124.725 149.358 137.929 161.253 143.017 160.461C148.102 159.667 163.694 152.319 165.995 150.921C168.299 149.522 178 142.348 175.533 139.522C173.066 136.697 159.09 134.827 158.597 134.529C158.104 134.23 121.571 137.782 121.571 137.782Z" fill="#262E63"/>
<path d="M100.724 135.12C98.3602 129.763 96.5712 124.192 94.8229 118.607C93.9661 114.331 93.4513 109.997 92.9962 105.659C92.7326 103.136 92.5003 100.608 92.1959 98.0893C91.8977 95.594 91.7063 92.9582 90.8494 90.5863C90.749 90.3117 90.3158 90.3396 90.3221 90.6579C90.3535 93.1393 90.8682 95.6239 91.1507 98.0893C91.4552 100.759 91.7282 103.431 92.0201 106.103C92.2336 108.081 92.6322 111.623 92.9241 113.597C91.1476 108.101 89.0415 101.112 86.4271 95.9365C85.0586 93.2288 83.4705 90.5725 81.694 88.0202C81.6186 85.0777 80.0368 82.1782 78.6432 79.6842C77.6514 77.9131 76.534 76.2154 75.3978 74.5356C74.4751 73.1734 73.5555 71.5583 72.3 70.4729C72.0991 70.2972 71.6974 70.4594 71.8072 70.7589C72.3471 72.2133 73.4362 73.5039 74.2993 74.7791C75.3664 76.356 76.3991 77.9548 77.3783 79.5885C78.6369 81.6861 80.0148 84.0906 80.6613 86.5786C74.9616 78.8437 67.4759 72.2042 58.9137 68.2567C55.9605 66.8952 52.7757 65.8795 49.5256 65.5914C49.2096 65.5631 49.1443 66.0769 49.4509 66.1419C56.3657 67.6095 62.6267 70.8712 68.1036 75.2098C66.7446 74.7321 65.2757 74.4621 64.1081 74.3062C61.1076 73.9047 58.0882 74.0259 55.0748 74.126C54.7468 74.1367 54.7468 74.625 55.0748 74.6348C57.6864 74.7132 60.3041 74.6815 62.9029 74.9672C64.3404 75.1257 65.7559 75.4499 67.1306 75.9C68.4646 76.3375 69.5851 77.226 70.897 77.6545C70.9347 77.667 70.9692 77.6711 71.0037 77.6705C74.7795 81.0963 78.1253 85.0228 80.9941 89.1799C81.0129 89.2116 81.0349 89.2439 81.0568 89.2759C81.0757 89.3346 81.107 89.3808 81.1478 89.4122C83.4955 92.855 85.3881 96.4867 87.0108 100.231C84.9393 98.0359 82.3499 96.3489 79.6413 94.9673C77.5823 93.9164 75.4355 93.0401 73.2949 92.1751C71.1293 91.3016 68.9008 90.1444 66.6222 89.6281C66.2769 89.5496 66.12 89.9815 66.3899 90.1777C68.0346 91.3613 70.15 91.9975 72.0238 92.742C74.2051 93.611 76.3865 94.4908 78.5082 95.5071C82.2024 97.2795 85.542 99.577 88.0717 102.786C91.3673 111.06 93.5769 119.797 96.6026 128.224C97.519 130.77 98.5234 133.282 99.6941 135.721C100.03 136.421 101.025 135.81 100.724 135.12Z" fill="white"/>
<path d="M195.592 132.422C195.592 132.422 208.401 127.837 208.401 136.548C208.401 145.592 205.005 151.013 200.856 157.415C197.413 162.723 192.689 170.101 179.865 173.068C167.04 176.037 169.786 159.224 170.358 158.238C170.929 157.251 188.521 146.201 188.521 146.201L195.592 132.422Z" fill="#262E63"/>
<path d="M242.92 88.4957C242.019 88.7125 241.219 89.4463 240.428 89.924C239.383 90.5543 238.291 91.1073 237.205 91.6575C235.971 92.2809 234.634 92.8672 233.419 93.6079C234.069 92.2353 234.669 90.838 235.224 89.4253C236.031 87.3786 236.885 85.2101 237.217 83.0266C237.318 82.3634 236.47 82.132 236.219 82.751C235.466 84.5997 234.957 86.5525 234.257 88.4235C233.482 90.4934 232.578 92.5112 231.58 94.4829C230.595 96.428 229.496 98.3159 228.288 100.131C228.297 98.4537 228.112 96.7563 228.005 95.0972C227.867 92.8819 228.121 90.5333 227.786 88.3506C227.735 88.0076 227.239 88.0653 227.152 88.3506C226.549 90.2819 226.882 92.6299 226.995 94.6214C227.123 96.8677 227.202 99.1454 227.428 101.385C226.54 102.639 225.601 103.855 224.603 105.023C222.899 107.016 221.016 108.842 218.969 110.47C219.113 108.486 219.286 106.526 219.622 104.541C219.967 102.484 220.72 100.07 220.325 97.9866C220.272 97.7076 219.898 97.766 219.817 97.9866C219.393 99.1234 219.336 100.397 219.145 101.59C218.953 102.788 218.749 103.985 218.561 105.184C218.263 107.102 217.984 109.125 218.178 111.079C217.233 111.791 216.264 112.467 215.259 113.094C213.429 114.233 211.487 115.164 209.478 115.937C207.472 116.708 205.376 117.082 203.342 117.738C203.015 117.843 203.069 118.338 203.423 118.34C207.07 118.359 210.915 116.801 214.176 115.061C215.545 114.941 216.982 114.936 218.31 114.891C219.365 114.856 220.419 114.844 221.474 114.838C222.337 114.833 223.523 115.057 224.289 114.591C224.565 114.423 224.399 114.13 224.189 114.01C223.897 113.847 223.467 113.837 223.14 113.825C221.546 113.762 219.908 113.877 218.31 113.947C217.494 113.983 216.672 114.03 215.856 114.118C216.025 114.1 216.298 113.849 216.446 113.758C217.215 113.278 217.949 112.754 218.693 112.236C219.211 111.876 219.713 111.454 220.206 111.052C220.805 110.56 221.389 110.05 221.96 109.525C223.112 108.464 224.208 107.339 225.25 106.165C225.545 105.832 225.833 105.49 226.119 105.148C228.25 104.682 230.397 104.299 232.531 103.851C233.966 103.552 235.387 103.207 236.784 102.775C237.823 102.455 239.179 102.099 239.945 101.284C240.221 100.989 239.938 100.593 239.577 100.651C238.331 100.85 237.085 101.542 235.864 101.9C234.349 102.346 232.795 102.684 231.251 103.014C229.936 103.296 228.617 103.558 227.308 103.872C227.246 103.886 227.18 103.9 227.114 103.916C229.176 101.271 230.965 98.4144 232.512 95.4427C232.575 95.3206 232.635 95.1957 232.698 95.0724C234.518 94.2366 236.288 93.2334 238.074 92.343C239.047 91.8597 240.004 91.3537 240.946 90.8107C241.759 90.3402 242.82 89.8151 243.287 88.9715C243.425 88.7185 243.199 88.4291 242.92 88.4957Z" fill="white"/>
<path d="M70.3634 124.453C70.3634 124.453 68.9354 130.431 77.0645 141.62C85.1936 152.809 102.139 169.769 110.309 169.429C118.476 169.09 143.306 160.539 138.456 156.429C133.604 152.318 101.452 133.288 101.452 133.288C101.452 133.288 70.5957 118.292 70.3634 124.453Z" fill="#262E63"/>
<path d="M127.628 162.687C127.628 162.687 119.339 164.742 114.474 164.902C109.606 165.061 104.55 164.884 100.278 166.827C96.0031 168.769 94.8857 169.755 95.2372 172.017C95.5856 174.279 96.3923 174.395 97.1612 175.271C97.9333 176.148 98.3759 180.189 98.718 180.699C99.0601 181.209 99.5215 184.017 104.311 183.349C109.101 182.68 106.201 183.404 114.744 179.828C123.29 176.251 128.118 174.232 130.673 173.453C133.231 172.675 133.438 172.65 136.313 172.486C139.191 172.322 140.55 170.342 141.269 167.879C141.984 165.415 127.628 162.687 127.628 162.687Z" fill="#F6F5FB"/>
<path d="M79.5911 114.604C74.7544 109.223 67.6987 106.47 60.6933 104.843C60.2915 104.46 59.9211 103.805 59.6104 103.377C59.0423 102.597 58.5213 101.783 58.016 100.961C57.4699 100.071 56.9708 99.1517 56.4937 98.2217C56.1268 97.5048 55.8927 96.5337 55.3183 95.9634C55.0974 95.7441 54.7461 95.9129 54.7311 96.2067C54.6871 97.0425 55.3155 97.9744 55.6783 98.6982C56.1987 99.7348 56.7888 100.735 57.4071 101.717C57.9313 102.546 58.4993 103.347 59.1239 104.103C59.284 104.297 59.4504 104.458 59.6199 104.602C58.5213 104.364 57.4291 104.152 56.3484 103.959C53.1395 103.39 49.9048 102.997 46.6638 102.652C45.7564 101.303 44.7571 100.01 43.8309 98.6765C43.2477 97.8363 42.6928 96.9769 42.1573 96.1053C41.6162 95.2246 41.2229 94.144 40.4386 93.456C40.3036 93.3373 40.029 93.4026 40.0485 93.6173C40.2136 95.4104 41.8661 97.2958 42.856 98.7437C43.7389 100.034 44.6639 101.323 45.6544 102.546C40.5488 102.014 35.4334 101.561 30.3839 100.67C29.9361 100.591 29.739 101.245 30.1931 101.362C33.6249 102.248 37.116 102.813 40.6263 103.277C39.7519 104.054 38.7723 104.716 37.8112 105.38C36.6995 106.15 35.064 107.008 34.3908 108.218C34.1952 108.57 34.5803 108.93 34.9249 108.752C35.5247 108.443 35.9921 107.93 36.5184 107.509C37.2915 106.892 38.1104 106.329 38.9088 105.746C39.8536 105.055 40.7566 104.31 41.458 103.385C45.6434 103.92 49.8521 104.336 54.0177 104.99C53.1527 105.636 52.3156 106.322 51.4572 106.973C50.3153 107.839 48.697 108.544 47.7824 109.631C47.5373 109.923 47.7692 110.325 48.1446 110.255C49.4296 110.012 50.6891 108.815 51.6976 108.023C52.8539 107.117 54.0045 106.187 55.0566 105.158C55.1316 105.17 55.2066 105.181 55.2813 105.195C59.4943 105.91 63.6719 106.913 67.6548 108.48C71.7978 110.111 75.401 112.52 78.6526 115.544C79.2803 116.131 80.1623 115.24 79.5911 114.604Z" fill="white"/>
<path d="M162.841 65.9266C162.841 65.9266 178.207 66.5904 180.263 71.643C182.322 76.695 184.682 130.694 184.682 130.694L169.171 140.519C169.171 140.519 164.73 141.011 159.912 139.522C155.094 138.034 145.013 138.145 141.127 138.506C139.326 138.673 126.589 113.756 118.567 96.4094C114.757 88.1739 118.692 78.2514 119.282 77.8327C125.054 73.722 156.984 64.888 162.841 65.9266Z" fill="#EBE4F4"/>
<path d="M138.456 158.238C138.456 158.238 148.833 154.216 155.826 149.442C162.816 144.668 182.872 130.931 187.536 129.133C192.2 127.335 196.371 125.703 201.013 126.878C205.655 128.051 210.099 133.013 207.861 138.637C205.624 144.261 192.25 155.06 185.75 158.323C178.807 161.808 160.844 167.322 151.171 167.63C141.498 167.939 138.052 159.712 138.052 159.712L138.456 158.238Z" fill="#262E63"/>
<path d="M126.781 136.944C126.781 136.944 132.951 144.648 140.553 141.125C148.158 137.601 151.56 129.709 150.804 128.146C150.047 126.584 145.066 126.079 145.066 126.079L126.781 136.944Z" fill="#FF814A"/>
<path d="M152.571 164.801C152.571 164.801 162.021 166.437 168.697 164.31C175.37 162.184 182.981 159.911 187.055 160.579C191.126 161.246 195.25 162.067 194.378 163.685C193.505 165.297 192.375 166.335 192.366 166.344C192.391 166.322 192.598 166.958 192.604 166.988C192.783 167.762 192.617 168.634 192.435 169.389C191.851 171.799 190.803 174.333 188.634 175.715C186.763 176.908 184.353 177.316 182.219 177.809C179.749 178.378 177.106 178.54 174.582 178.317C167.367 177.677 154.539 173.634 146.771 172.615C139.003 171.595 152.571 164.801 152.571 164.801Z" fill="#F6F5FB"/>
<path d="M108.881 86.1824C107.99 83.5796 106.847 81.0614 105.582 78.6186C102.977 73.5877 99.691 68.9287 96.1161 64.5455C95.3722 63.6309 94.6032 62.7367 93.8249 61.8513C93.8437 59.616 93.3572 57.3728 93.0716 55.1679C92.9084 53.9193 92.8173 52.6661 92.833 51.4065C92.8519 50.0243 93.3164 48.7302 93.398 47.374C93.4137 47.1351 93.1061 47.1028 92.99 47.2635C91.6466 49.1018 91.995 52.2132 92.221 54.3283C92.4595 56.5913 92.877 58.825 93.1438 61.0827C92.3309 60.1747 91.5054 59.2751 90.6705 58.3834C89.211 56.822 87.783 55.2093 86.6593 53.3807C84.4685 49.8071 84.8107 45.8357 84.9676 41.8252C84.9801 41.4915 84.4497 41.4152 84.3838 41.7457C83.6274 45.4139 83.5175 49.3382 85.1025 52.8004C85.3536 53.3465 85.6393 53.8748 85.9468 54.3908C84.8044 54.0844 83.6148 54.0628 82.4692 53.6193C80.903 53.011 79.5785 51.9341 78.6055 50.5726C78.4141 50.3024 78.0029 50.5327 78.1567 50.8353C78.8943 52.2787 80.1027 53.285 81.5119 54.0483C82.7737 54.7313 84.7981 55.4714 86.2356 55.0769C86.2764 55.0649 86.3109 55.0458 86.3423 55.0219C88.3667 58.1097 91.2888 60.7154 93.6397 63.4618C95.7049 65.8757 97.6571 68.3907 99.4744 71.0008C97.3276 70.3775 95.0992 70.1195 92.8895 69.7968C91.7 69.6229 90.5073 69.4324 89.3272 69.198C88.2663 68.987 87.2274 68.6123 86.1509 68.5015C85.8119 68.4667 85.7146 68.9619 85.9845 69.1154C87.8834 70.2067 90.5136 70.3762 92.651 70.6697C95.0238 70.9955 97.3966 71.3118 99.7569 71.7101C99.8291 71.7224 99.8919 71.7086 99.9452 71.6847C101.279 73.6435 102.538 75.6548 103.696 77.7232C105.13 80.2899 106.376 82.9616 107.406 85.7176C108.432 88.4712 108.959 91.2953 109.691 94.1267C109.838 94.6923 110.748 94.5827 110.72 93.9873C110.588 91.3374 109.738 88.6748 108.881 86.1824Z" fill="white"/>
<path d="M121.109 129.38C121.109 129.38 132.496 117.187 137.656 117.2C142.813 117.212 148.073 122.821 148.073 122.821L143.99 126.584L127.11 131.042L121.109 129.38Z" fill="#FF814A"/>
<path d="M112.271 124.817C112.271 124.817 114 127.482 118.57 127.001C123.137 126.518 142.559 123.887 142.559 123.887C142.559 123.887 146.209 120.985 151.171 120.291C156.13 119.596 159.501 119.637 159.501 119.637C159.501 119.637 162.404 121.056 160.336 123.799C158.268 126.544 154.41 132.202 152.392 131.469C150.377 130.737 146.231 128.781 146.231 128.781C146.231 128.781 139.219 134.111 135.18 135.833C131.137 137.554 122.839 142.128 114.81 139.522C106.781 136.917 105.24 125.68 112.271 124.817Z" fill="#F6F5FB"/>
<path d="M109.835 92.3769C109.43 92.735 106.91 96.0093 104.857 104.682C102.808 113.354 100.049 119.779 102.28 125.105C104.512 130.431 107.942 136.419 110.861 131.399C113.78 126.379 120.13 100.326 119.345 95.6151C118.561 90.9036 112.208 90.2737 109.835 92.3769Z" fill="#E3D8F1"/>
<path d="M114.81 107.967C114.86 108.169 114.778 111.211 113.545 113.266C112.311 115.321 109.267 120.603 111.652 123.8C114.038 126.996 111.819 127.767 116.257 128.779C116.257 128.779 124.496 128.919 126.781 126.996C129.066 125.072 134.003 121.821 134.75 121.449C135.497 121.076 138.786 119.446 141.127 119.891C143.469 120.336 146.473 122.475 147.15 121.364C147.828 120.254 147.15 119.876 147.15 119.876C147.15 119.876 147.973 119.792 148.064 118.913C148.158 118.034 147.398 118.072 147.398 118.072C147.398 118.072 147.42 118.091 147.624 117.2C147.828 116.308 146.429 116.386 146.429 116.386C146.429 116.386 145.336 115.32 143.252 113.059C141.168 110.8 140.76 112.06 137.553 112.869C134.345 113.677 114.81 107.967 114.81 107.967Z" fill="#FF814A"/>
<path d="M134.213 63.3014C134.213 63.3014 138.915 67.2608 138.902 71.643C138.886 76.0249 137.596 77.668 137.596 77.668C137.596 77.668 141.105 82.272 144.888 82.272C148.67 82.272 153.767 76.517 153.767 76.517L143.522 49.5811L134.213 63.3014Z" fill="#F6F5FB"/>
<path d="M116.624 28.6413C116.624 28.6413 113.294 26.4251 109.565 32.9726C105.836 39.5202 109.669 46.8109 106.653 53.2913C103.633 59.7717 98.0369 65.6607 97.6603 76.844C97.2868 88.0264 105.03 100.087 111.269 100.387C117.512 100.687 116.637 93.6914 120.855 90.037C125.073 86.3824 129.116 89.4765 133.262 88.1761C137.408 86.8755 139.367 81.4986 139.605 77.446C140.368 64.3384 135.023 62.212 130.108 60.0742C125.196 57.9374 123.629 27.7929 116.624 28.6413Z" fill="#4E54E3"/>
<path d="M116.775 29.0352C116.775 29.0352 118.033 25.5591 125.105 24.0912C132.176 22.6236 140.239 28.13 142.59 32.9472C144.941 37.7651 147.38 46.8583 154.209 49.0218C161.036 51.1856 165.603 52.0977 168.333 56.1669C170.781 59.8194 169.102 66.5945 169.102 66.5945L164.435 66.0339C164.435 66.0339 167.574 68.054 164.878 73.4914C162.185 78.9288 160.634 77.9432 157.398 80.1729C154.162 82.4032 155.688 88.5958 150.757 91.6955C149.241 92.6468 145.66 88.8874 147.797 85.9279C149.934 82.9688 141.162 72.6185 146.049 70.9603C151.41 69.1418 143.654 52.9093 143.654 52.9093L126.348 47.3731L116.775 29.0352Z" fill="#4E54E3"/>
<path d="M115.453 104.401C115.453 104.401 114.891 100.957 117.49 98.1382C120.089 95.3203 121.012 95.0011 121.677 92.3769C122.343 89.7527 125.302 84.5739 126.781 84.1624C128.262 83.7516 127.92 84.7911 128.46 86.1618C129 87.5327 129.408 88.8695 133.686 89.2696C137.964 89.6704 141.736 93.3706 141.639 97.5384C141.557 100.975 139.916 102.178 139.916 102.178C139.916 102.178 137.421 100.447 132.76 102.54C128.096 104.633 122.051 103.638 121.677 103.506C121.304 103.373 119.725 104.033 120.29 104.818C120.855 105.602 126.348 107.006 126.348 107.006C126.348 107.006 118.159 108.893 117.145 107.599C116.128 106.305 115.72 105.566 115.453 104.401Z" fill="#FF814A"/>
<path d="M136.193 39.6165C136.193 39.6165 132.813 41.6987 128.46 40.2188C124.11 38.7392 119.942 37.0679 117.525 41.0484C115.105 45.0288 118.074 55.4585 124.414 59.68C130.754 63.9015 136.68 64.5025 139.251 64.5295C141.821 64.5568 145.073 61.1024 145.248 56.6242C145.474 50.7493 140.779 43.7288 140.779 43.7288C140.779 43.7288 141.501 39.0387 139.894 37.5506C138.287 36.0626 136.316 36.3473 136.193 39.6165Z" fill="#F6F5FB"/>
<path d="M126.699 98.2205C126.417 96.6075 126.015 94.8797 126.715 93.2808C127.004 92.6205 127.597 91.7803 128.268 91.4532C128.962 91.1149 128.965 91.7737 129.044 92.3769C129.248 93.9456 131.2 95.9176 130.717 96.2469C130.233 96.5764 126.912 99.447 126.699 98.2205Z" fill="#F3F0FA"/>
<path d="M138.673 96.2469C138.673 96.2469 140.217 97.9666 140.672 97.5384C141.127 97.111 140.415 95.2501 140.032 95.0501C139.646 94.8502 138.478 95.4654 138.673 96.2469Z" fill="white"/>
<path d="M137.509 97.082C136.391 97.2016 135.503 97.8962 134.718 98.6592C133.952 99.404 133.017 100.481 132.706 101.518C132.669 101.64 132.823 101.715 132.91 101.636C133.601 101.007 134.072 100.109 134.69 99.4031C135.487 98.4932 136.423 97.8165 137.549 97.3805C137.697 97.324 137.694 97.0616 137.509 97.082Z" fill="white"/>
<path d="M137.829 98.0431C136.46 100.231 135.588 103.144 135.855 105.743C135.867 105.866 136.027 105.863 136.043 105.743C136.385 103.008 136.63 100.614 138.014 98.1517C138.083 98.0303 137.901 97.9248 137.829 98.0431Z" fill="white"/>
<path d="M141.24 107.428C140.49 106.164 139.803 105.078 139.436 103.621C139.094 102.263 138.987 100.81 138.918 99.4131C138.908 99.2427 138.648 99.2405 138.651 99.4131C138.695 102.008 138.799 105.826 141.127 107.542C141.196 107.592 141.281 107.495 141.24 107.428Z" fill="white"/>
<path d="M142.769 90.4708C142.078 90.9093 141.548 91.7567 141.099 92.4293C140.635 93.1277 140.224 94.0332 140.434 94.8828C140.462 94.9967 140.647 95.0049 140.669 94.8828C140.823 94.0646 141.058 93.3785 141.504 92.6666C141.937 91.9786 142.65 91.4278 142.998 90.7006C143.067 90.5587 142.923 90.3745 142.769 90.4708Z" fill="white"/>
<path d="M143.111 92.9315C142.615 93.0567 142.141 93.654 141.802 94.0127C141.394 94.4393 141.102 94.9139 140.936 95.4776C140.892 95.6216 141.102 95.6693 141.156 95.5378C141.372 95.0049 141.752 94.5545 142.154 94.1505C142.48 93.8216 143.048 93.5228 143.24 93.0985C143.281 93.01 143.215 92.9054 143.111 92.9315Z" fill="white"/>
<path d="M143.977 96.6853C143.503 95.8423 142 95.8705 141.218 96.1248C141.062 96.1753 141.124 96.4145 141.284 96.3705C141.768 96.2359 142.232 96.229 142.722 96.3423C143.139 96.4402 143.453 96.7368 143.852 96.847C143.946 96.8727 144.024 96.7694 143.977 96.6853Z" fill="white"/>
<path d="M171.607 69.7488C166.795 72.7089 171.149 90.1419 172.696 97.991C174.413 106.684 182.937 131.503 188.917 130.601C193.91 129.847 191.471 110.609 188.929 99.9545C186.387 89.3007 184.187 62.0067 171.607 69.7488Z" fill="#E3D8F1"/>
<path d="M115.927 104.477C115.761 103.63 114.543 104.973 114.424 106.676C114.305 108.379 114.744 109.725 115.494 110.156C116.241 110.587 115.18 111.349 115.588 112.537C115.996 113.724 118.388 117.288 120.488 118.072C122.587 118.857 127.151 118.427 129.292 117.406C131.429 116.386 135.804 113.111 138.651 112.449C141.498 111.786 143.469 111.458 156.13 119.596C168.792 127.736 182.865 134.093 189.767 130.249C196.669 126.405 183.261 114.582 178.082 112.609C172.903 110.635 156.789 106.442 152.514 105.456C148.24 104.469 141.909 103.947 141.25 103.181C140.594 102.414 138.504 100.082 131.903 102.317C125.302 104.551 121.605 103.86 121.015 103.617C119.282 102.907 118.24 104.73 120.943 105.834C122.835 106.607 125.302 106.919 125.302 106.919C125.302 106.919 119.465 108.586 117.657 107.555C115.846 106.524 116.257 106.128 115.927 104.477Z" fill="#F6F5FB"/>
<path d="M94.3239 116.615C100.865 120.809 131.159 149.364 135.387 152.108C139.621 154.853 153.045 162.505 153.045 162.505C153.045 162.505 153.804 166.408 151.899 169.24C149.994 172.072 148.506 173.068 148.506 173.068C148.506 173.068 124.763 167.243 101.744 154.873C78.7279 142.503 71.1701 134.048 70.489 126.869C69.8079 119.689 72.0834 118.738 73.7752 115.697C75.4669 112.657 82.306 108.911 94.3239 116.615Z" fill="#262E63"/>
<path d="M38.6474 71.9572C38.6135 71.9575 38.5793 71.9572 38.5454 71.9562C38.5325 71.9223 38.5178 71.8894 38.498 71.8552C38.4553 71.7827 38.3458 71.7823 38.3034 71.8552C38.2849 71.8875 38.2591 71.9223 38.25 71.9581C38.2422 71.9908 38.2095 72.1169 38.2516 72.0184C38.2127 72.1094 38.2199 72.1825 38.283 72.2601C38.369 72.3655 38.525 72.3602 38.6474 72.3614C38.9085 72.3646 38.9085 71.954 38.6474 71.9572Z" fill="#56B8A6"/>
<path d="M251.632 138.782C251.632 138.782 254.711 136.802 258.592 139.565C262.477 142.328 264.885 143.029 267.287 142.698C271.201 142.158 275.062 139.608 276.581 137.831C277.1 137.224 278.069 137.349 278.145 137.999C278.207 138.547 277.494 139.526 276.748 140.181C274.826 141.864 269.788 145.454 263.16 144.159C259.401 143.425 256.371 138.608 253.476 140.726C250.863 142.636 250.17 139.332 251.632 138.782Z" fill="#DC598D"/>
<path d="M232.261 148.393C232.261 148.393 227.494 155.195 229.054 157.004C230.617 158.813 232.867 159.923 233.413 159.72C233.956 159.518 243.115 153.633 243.115 153.633V150.221C243.115 150.221 233.375 146.666 232.261 148.393Z" fill="#DC598D"/>
<path d="M212.918 148.393C212.918 148.393 213.059 149.514 214.503 153.342C215.947 157.169 217.569 162.499 215.987 164.738C214.406 166.977 211.656 168.167 212.912 168.537C214.17 168.906 216.339 169.591 217.861 168.988C219.387 168.385 220.344 167.773 221.078 167.227C221.813 166.682 223.112 167.714 222.553 164.073C221.995 160.431 221.411 157.127 221.533 155.894C221.656 154.661 212.918 148.393 212.918 148.393Z" fill="#DC598D"/>
<path d="M205.295 103.976C205.974 103.632 206.334 103.45 205.734 106.179C205.13 108.909 203.404 111.951 205.295 113.431C207.188 114.911 208.582 116.144 208.996 116.144C209.407 116.144 211.357 117.14 213.402 118.897C215.444 120.654 226.139 125.412 230.634 126.22C235.129 127.027 247.718 129.861 251.077 135.736C254.434 141.611 257.769 149.701 253.031 154.791C248.293 159.882 246.415 158.88 242.231 160.866C238.046 162.852 230.906 163.677 230.906 163.677L230.615 158.813C230.615 158.813 233.144 158.445 235.786 156.491C238.428 154.538 240.483 153.058 241.551 152.647C242.623 152.235 238.672 149.44 236.703 149.933C234.727 150.427 233.984 150.618 233.295 151.317C232.613 152.015 230.564 158.334 231.525 164.7C232.486 171.065 233.251 173.723 231.399 174.162C229.55 174.599 227.138 174.449 226.67 174.162C226.203 173.875 223.696 173.973 225.062 170.093C226.424 166.212 225.188 164.732 224.038 161.633C222.887 158.535 220.589 156.504 216.477 153.342C212.365 150.181 209.347 143.299 207.494 140.598C205.642 137.897 204.391 134.38 201.429 133.771C198.471 133.162 195.534 131.14 193.755 129.931C192.829 129.302 191.539 129.446 189.902 129.589C188.391 129.721 186.583 129.853 184.494 129.38C180.138 128.393 174.895 124.249 175.337 121.964C175.78 119.679 178.574 119.596 181.864 118.035C185.154 116.473 188.296 112.882 191.122 112.128C193.951 111.375 199.378 110.45 200.484 109.145C201.596 107.841 204.735 104.261 205.295 103.976Z" fill="#F27DA9"/>
<mask id="mask1_88_900" style="mask-type:luminance" maskUnits="userSpaceOnUse" x="175" y="103" width="81" height="72">
<path d="M205.294 103.976C205.975 103.632 206.336 103.45 205.733 106.179C205.131 108.909 203.405 111.951 205.294 113.431C207.187 114.911 208.583 116.144 208.994 116.144C209.406 116.144 211.358 117.14 213.401 118.897C215.444 120.654 226.141 125.412 230.635 126.22C235.13 127.027 247.719 129.861 251.077 135.736C254.436 141.611 257.769 149.701 253.03 154.791C248.293 159.882 246.417 158.88 242.23 160.866C238.046 162.852 230.905 163.676 230.905 163.676L230.617 158.813C230.617 158.813 233.143 158.445 235.786 156.491C238.429 154.538 240.485 153.058 241.552 152.647C242.622 152.235 238.674 149.44 236.702 149.933C234.728 150.427 233.984 150.618 233.297 151.317C232.613 152.015 230.563 158.334 231.527 164.7C232.487 171.065 233.25 173.723 231.398 174.162C229.549 174.599 227.139 174.449 226.671 174.162C226.204 173.874 223.696 173.974 225.061 170.093C226.423 166.212 225.19 164.732 224.038 161.633C222.886 158.535 220.589 156.504 216.477 153.342C212.365 150.18 209.346 143.299 207.494 140.598C205.642 137.897 204.39 134.38 201.43 133.771C198.471 133.162 195.536 131.14 193.756 129.931C192.83 129.302 191.54 129.446 189.902 129.589C188.392 129.721 186.584 129.853 184.494 129.38C180.138 128.394 174.896 124.249 175.339 121.964C175.781 119.679 178.575 119.596 181.864 118.035C185.153 116.473 188.295 112.882 191.123 112.128C193.951 111.375 199.378 110.45 200.486 109.145C201.597 107.84 204.735 104.261 205.294 103.976Z" fill="white"/>
</mask>
<g mask="url(#mask1_88_900)">
<path d="M177.646 119.499C178.248 120.83 178.954 121.653 178.066 122.763C177.178 123.872 175.791 126.338 175.003 124.365C174.218 122.392 175.59 119.102 176.591 118.897C177.589 118.692 177.646 119.499 177.646 119.499Z" fill="#361D31"/>
<path d="M220.915 122.08C220.915 122.08 216.722 121.488 219.807 126.544C222.889 131.6 224.167 133.426 223.63 135.809C223.093 138.191 219.437 142.205 221.656 142.699C223.875 143.192 228.683 141.526 231.15 138.782C233.617 136.039 235.962 134.052 233.372 130.73C230.783 127.407 230.042 125.927 231.276 124.817C232.509 123.707 220.915 122.08 220.915 122.08Z" fill="#DC598D"/>
<path d="M203.502 117.88C204.472 116.692 200.012 112.241 189.491 112.88C188.471 112.941 205.203 100.922 207.325 104.087C208.345 105.606 204.374 111.42 204.437 111.636C204.842 113.039 204.513 112.834 206.455 114.353C208.332 115.82 209.29 116.206 209.29 116.206L203.502 117.88Z" fill="#DC598D"/>
<path d="M231.448 163.607C231.197 161.327 230.996 157.988 231.703 156.377C231.703 156.376 231.703 156.376 231.703 156.376C231.58 157.083 231.474 157.843 231.398 158.638C231.878 158.507 232.553 158.289 233.325 157.937C232.898 159.239 232.723 161.037 233.476 163.295C232.613 163.443 231.9 163.545 231.448 163.607Z" fill="#E46797"/>
</g>
<path d="M205.812 118.662C205.812 118.662 210.394 124.925 210.805 124.761C211.217 124.596 215.156 120.824 215.623 119.637C216.088 118.45 215.648 117.178 214.092 116.884C212.535 116.589 207.959 118.072 205.812 118.662Z" fill="#F27DA9"/>
<path d="M206.587 119.596L209.572 123.206C209.572 123.206 213.024 121.456 213.411 119.843C213.793 118.23 211.873 117.294 206.939 119.596" fill="#DC598D"/>
<path d="M169.862 52.0117C169.573 52.0151 169.319 52.0942 169.039 51.9731C168.779 51.8616 168.622 51.608 168.5 51.3654C168.239 50.8366 168.267 50.2587 168.192 49.6913C168.189 49.6615 168.173 49.6376 168.151 49.6206C168.132 49.5416 168.004 49.5158 167.963 49.5977C167.709 50.1125 167.445 50.4992 166.937 50.7958C166.359 51.1322 165.854 51.0076 165.251 50.8758C165.129 50.8488 165.009 51.0086 165.119 51.1027C165.945 51.8029 167.376 51.2226 167.932 50.318C167.944 50.8061 168.085 51.3149 168.299 51.7079C168.603 52.2725 169.338 52.6083 169.934 52.2841C170.063 52.2141 170.006 52.0092 169.862 52.0117Z" fill="white"/>
<path d="M168.176 48.7183C168.923 48.8868 169.41 49.5406 168.873 49.9515C168.34 50.3623 167.969 50.5679 167.684 50.3215C167.395 50.0751 166.532 48.3483 168.176 48.7183Z" fill="#F8A2C3"/>
<path d="M178 45.2755C178 45.2755 178.082 43.9595 177.508 43.3019C176.93 42.6444 179.786 39.9712 180.612 40.3422C181.437 40.7138 179.397 44.0421 178 45.2755Z" fill="#9C9C9B"/>
<path d="M178 45.2755L178.157 45.2852C178.157 45.2824 178.16 45.2136 178.16 45.1007C178.16 44.9039 178.148 44.5727 178.079 44.2193C178.007 43.8662 177.878 43.4874 177.627 43.1983C177.602 43.1713 177.589 43.139 177.589 43.0778C177.583 42.9353 177.696 42.6701 177.9 42.3857C178.204 41.9554 178.691 41.4648 179.18 41.0895C179.425 40.9015 179.67 40.742 179.89 40.6318C180.106 40.5207 180.301 40.4627 180.43 40.4639C180.48 40.4639 180.521 40.4724 180.549 40.4853C180.58 40.501 180.596 40.5173 180.615 40.5531C180.634 40.5888 180.646 40.6469 180.646 40.7257C180.646 40.9338 180.552 41.2677 180.386 41.6491C179.887 42.7981 178.75 44.4064 177.897 45.1578L178 45.2755L178.104 45.3932C178.71 44.8574 179.413 43.9632 179.974 43.0693C180.254 42.6224 180.499 42.1764 180.674 41.7743C180.847 41.371 180.957 41.0163 180.96 40.7257C180.96 40.6149 180.944 40.511 180.897 40.4172C180.853 40.3233 180.775 40.2427 180.678 40.199C180.599 40.1642 180.514 40.1501 180.43 40.1501C180.15 40.1529 179.836 40.2879 179.501 40.489C178.998 40.7926 178.452 41.2577 178.025 41.7319C177.812 41.9692 177.63 42.2084 177.495 42.4347C177.363 42.6616 177.275 42.8728 177.275 43.0778C177.272 43.1936 177.307 43.3132 177.388 43.4052C177.586 43.6271 177.705 43.9579 177.771 44.2815C177.834 44.6044 177.846 44.9177 177.846 45.1007C177.846 45.1534 177.846 45.1951 177.846 45.2237C177.843 45.2522 177.843 45.2658 177.843 45.2658L177.821 45.6436L178.104 45.3932L178 45.2755Z" fill="#9C9C9B"/>
<path d="M165.22 48.4898C164.564 48.2039 164.011 47.7833 163.465 47.3291C162.972 46.9195 162.499 46.4092 161.927 46.1113C161.849 46.0712 161.764 46.1719 161.83 46.2353C162.342 46.719 162.929 47.1505 163.475 47.5987C163.98 48.0155 164.526 48.3818 165.132 48.6376C165.232 48.68 165.32 48.5337 165.22 48.4898Z" fill="white"/>
<path d="M165.257 49.1621C164.074 49.0914 162.982 48.8821 161.833 48.6269C161.72 48.6021 161.639 48.766 161.752 48.8187C162.816 49.3187 164.105 49.3394 165.257 49.2807C165.336 49.2773 165.336 49.1661 165.257 49.1621Z" fill="white"/>
<path d="M164.896 49.6593C164.466 49.9465 164.021 50.2176 163.584 50.4913C163.079 50.8064 162.495 51.0362 162.018 51.3846C161.959 51.4285 161.993 51.5186 162.069 51.5042C163.123 51.3023 164.115 50.389 164.962 49.7704C165.028 49.7227 164.965 49.6119 164.896 49.6593Z" fill="white"/>
<path d="M173.562 49.0651C173.063 49.1116 172.586 49.2729 172.081 49.3175C171.575 49.363 171.058 49.3755 170.577 49.5491C170.493 49.5799 170.499 49.7327 170.602 49.7192C171.158 49.647 171.714 49.6078 172.272 49.561C172.73 49.5227 173.248 49.4882 173.612 49.1919C173.663 49.1514 173.625 49.0592 173.562 49.0651Z" fill="white"/>
<path d="M173.132 51.8698C172.865 51.6052 172.511 51.4178 172.203 51.1997C171.795 50.91 171.425 50.5811 171.064 50.2399C171.004 50.1865 170.901 50.2594 170.951 50.3262C171.237 50.7013 171.582 51.0076 171.952 51.2967C172.288 51.5575 172.649 51.8579 173.044 52.0226C173.132 52.06 173.192 51.9297 173.132 51.8698Z" fill="white"/>
<path d="M170.486 50.8174C170.433 50.7637 170.329 50.8369 170.377 50.9006C170.741 51.382 171.048 51.8701 171.302 52.4187C171.579 53.017 171.673 53.6764 171.936 54.2727C171.968 54.3393 172.071 54.3035 172.071 54.2363C172.046 53.0851 171.287 51.6184 170.486 50.8174Z" fill="white"/>
<path d="M160.81 41.5756C160.81 41.5756 162.1 40.4567 162.96 40.3076C163.82 40.1573 164.435 39.8491 164.435 39.8491C164.435 39.8491 162.42 36.5193 161.708 36.6429C160.995 36.7657 160.502 39.7872 160.81 41.5756Z" fill="#9C9C9B"/>
<path d="M160.81 41.5757L160.913 41.694C160.913 41.694 160.932 41.6777 160.967 41.6476C161.096 41.5421 161.425 41.2728 161.814 41.0164C162.203 40.7593 162.655 40.518 162.988 40.4621C163.87 40.3077 164.498 39.9935 164.504 39.9891L164.658 39.9132L164.57 39.7678C164.567 39.7656 164.08 38.9612 163.497 38.1524C163.205 37.7481 162.891 37.3426 162.596 37.0328C162.448 36.8778 162.304 36.7462 162.169 36.6493C162.031 36.5538 161.899 36.4851 161.748 36.4826L161.679 36.4883C161.569 36.508 161.472 36.5692 161.394 36.649C161.252 36.7899 161.139 36.9939 161.039 37.2469C160.744 38.0036 160.562 39.2151 160.559 40.3362C160.559 40.7851 160.59 41.2185 160.656 41.6024L160.703 41.8764L160.913 41.694L160.81 41.5757L160.964 41.549C160.904 41.1887 160.873 40.7709 160.873 40.3362C160.873 39.5092 160.979 38.6191 161.152 37.9342C161.24 37.5921 161.344 37.3009 161.453 37.0997C161.507 36.9992 161.563 36.9217 161.613 36.8721C161.664 36.8219 161.704 36.8024 161.736 36.7977L161.748 36.7965C161.783 36.7943 161.877 36.8257 161.987 36.9057C162.182 37.0432 162.436 37.3053 162.693 37.6166C163.079 38.0843 163.481 38.664 163.788 39.1257C163.939 39.3567 164.068 39.5582 164.159 39.7016C164.25 39.8454 164.3 39.9301 164.3 39.9304L164.435 39.8491L164.363 39.7088L164.341 39.7208C164.219 39.7779 163.666 40.0252 162.935 40.1529C162.455 40.2386 161.915 40.5657 161.472 40.8686C161.036 41.1721 160.709 41.4549 160.706 41.4571L160.81 41.5757Z" fill="#9C9C9B"/>
<path d="M172.457 66.5521C172.457 66.5521 172.031 66.9178 170.759 67.9661C169.491 69.0147 169.855 68.7065 170.938 69.4463C172.018 70.186 172.944 71.4525 174.425 70.4183C175.904 69.3844 175.659 68.891 175.966 67.9046C176.274 66.9178 176.889 66.9796 176.889 66.9796C176.889 66.9796 174.155 65.1372 172.457 66.5521Z" fill="#B3B3B2"/>
<path d="M256.269 168.238C255.667 172.651 260.532 175.177 268.296 180.062C277.525 185.87 299.345 178.123 299.995 167.943C300.313 162.972 284.775 162.687 273.816 162.494C264.645 162.332 256.871 163.824 256.269 168.238Z" fill="#D3D6FF"/>
<path d="M249.637 177.378C249.637 179.034 247.295 180.376 244.408 180.376C241.52 180.376 239.179 179.034 239.179 177.378C239.179 175.722 241.52 174.379 244.408 174.379C247.295 174.379 249.637 175.722 249.637 177.378Z" fill="#9C9C9B"/>
<path d="M156.981 200.666C156.858 200.011 156.667 199.36 156.35 198.786C156.469 198.561 156.447 198.253 156.253 198.077C155.154 197.078 153.641 196.51 152.207 197.161C151.259 197.592 150.559 198.387 150.198 199.33C150.123 199.367 150.047 199.401 149.969 199.439C149.542 199.652 149.605 200.25 149.934 200.493C149.931 200.567 149.925 200.641 149.922 200.716C149.919 200.881 150.013 200.99 150.132 201.038C150.073 201.746 150.43 202.464 151.322 202.692C152.725 203.051 154.052 202.729 155.462 202.659C156.544 202.604 157.175 201.7 156.981 200.666Z" fill="#9C9C9B"/>
<path d="M162.916 202.329C162.652 201.721 162.392 201.113 162.131 200.505C161.962 200.114 161.431 199.86 161.026 199.871C160.612 199.883 160.185 199.924 159.787 200.025C159.134 200.19 158.726 200.68 158.654 201.231C158.534 201.527 158.497 201.862 158.506 202.172C158.509 202.258 158.512 202.337 158.519 202.415C158.205 202.76 158.092 203.318 158.208 203.739C158.374 204.345 158.927 204.743 159.545 204.758C160.01 204.77 160.471 204.78 160.935 204.791C161.353 204.801 161.733 204.606 161.996 204.305C162.376 204.235 162.712 204.017 162.916 203.672C163.176 203.224 163.107 202.781 162.916 202.329Z" fill="#9C9C9B"/>
<path d="M205.134 172.414C205.059 171.245 204.792 170.177 204.327 169.104C203.835 167.966 202.968 167.825 201.82 168.012C199.933 168.32 199.214 169.841 198.772 171.514C198.737 171.637 198.744 171.751 198.778 171.852C198.486 172.594 198.85 173.572 199.714 173.794C201.088 174.148 202.41 173.844 203.794 173.756C204.484 173.711 205.184 173.178 205.134 172.414Z" fill="#9C9C9B"/>
<path d="M38.0212 157.666C36.7978 155.658 34.8412 154.357 32.4382 154.684C31.3359 154.834 30.2374 155.556 29.6137 156.525C28.3818 157.326 27.9669 159.446 29.5855 160.193C31.8328 161.231 34.3986 161.626 36.7664 160.751C38.004 160.293 38.7745 158.904 38.0212 157.666Z" fill="#B3B3B2"/>
<path d="M27.6097 149.936C27.1703 148.857 26.5466 147.297 25.1439 147.31C24.1314 147.319 23.3534 148.252 22.9814 149.098C22.73 149.672 23.0925 150.198 23.6173 150.21L23.6261 150.222C23.9274 150.565 24.4494 150.87 24.8533 151.091C25.4861 151.435 26.1945 151.446 26.8711 151.238C27.3721 151.083 27.8316 150.483 27.6097 149.936Z" fill="#B3B3B2"/>
<path d="M155.669 206.439C155.229 205.36 154.605 203.8 153.202 203.812C152.188 203.822 151.413 204.755 151.039 205.601C150.788 206.174 151.152 206.701 151.676 206.713L151.686 206.725C151.987 207.067 152.508 207.372 152.913 207.593C153.544 207.938 154.253 207.948 154.928 207.74C155.43 207.586 155.892 206.985 155.669 206.439Z" fill="#E7E7E6"/>
<path d="M208.913 178.879C208.473 177.8 207.849 176.24 206.446 176.253C205.435 176.262 204.657 177.195 204.283 178.041C204.032 178.614 204.396 179.141 204.921 179.153L204.93 179.165C205.231 179.507 205.752 179.813 206.157 180.033C206.788 180.378 207.497 180.388 208.175 180.181C208.674 180.026 209.136 179.425 208.913 178.879Z" fill="#E7E7E6"/>
<path d="M18.4511 149.981C17.1913 149.981 17.1913 151.934 18.4511 151.934C19.711 151.934 19.711 149.981 18.4511 149.981Z" fill="#B3B3B2"/>
<path d="M253.02 180.097C252.126 178.585 250.535 177.519 248.739 178.089C248.064 178.304 247.556 178.695 247.211 179.189C247.198 179.209 246.781 179.239 246.715 179.266C246.548 179.331 246.404 179.438 246.285 179.567C246.034 179.834 245.896 180.207 245.87 180.568C245.845 180.932 245.93 181.328 246.172 181.612C246.825 182.379 247.568 182.188 248.472 182.12C249.769 182.023 251.062 181.949 252.345 181.757C253.08 181.647 253.359 180.668 253.02 180.097Z" fill="#B3B3B2"/>
<path d="M208.568 172.081C207.472 171.237 206.223 170.547 204.98 171.553C204.362 172.054 204.145 172.932 203.715 173.568C202.962 174.672 204.491 176.287 205.598 175.454L205.636 175.424C205.765 175.418 205.903 175.394 206.044 175.343C206.085 175.329 206.11 175.317 206.129 175.309C206.22 175.305 206.311 175.308 206.405 175.313C206.706 175.328 206.998 175.329 207.3 175.257C208.185 175.044 208.656 174.362 208.957 173.558C209.126 173.11 208.954 172.38 208.568 172.081Z" fill="#B3B3B2"/>
<path d="M216 172.347C214.484 172.347 214.484 174.701 216 174.701C217.519 174.701 217.519 172.347 216 172.347Z" fill="#B3B3B2"/>
<path d="M153.28 203.111C152.609 201.23 151.256 199.544 149.065 199.939C147.879 200.152 146.94 200.969 146.262 201.959C146.203 201.956 146.143 201.95 146.083 201.948C144.301 201.881 144.119 204.396 145.678 204.925C147.7 205.609 150.324 205.225 152.354 204.744C153.02 204.586 153.519 203.775 153.28 203.111Z" fill="#B3B3B2"/>
</svg>
