<svg width="14" height="14" viewBox="0 0 14 14" fill="none" xmlns="http://www.w3.org/2000/svg">
<g clip-path="url(#clip0_6_94)">
<path d="M13.3438 13.0747L12.6394 10.7975C12.4651 10.2847 12.1324 9.84055 11.6893 9.52915C11.2462 9.21775 10.7156 9.05521 10.1741 9.065H8.39344V8.1725C8.58936 8.06667 8.77218 7.93818 8.93813 7.78969H10.8413C11.0408 7.78969 11.2322 7.71041 11.3734 7.56929C11.5145 7.42817 11.5938 7.23677 11.5938 7.03719V5.23688C11.595 4.63342 11.4768 4.0357 11.2459 3.47816C11.015 2.92063 10.676 2.41432 10.2484 1.98844C7.33688 -0.923122 2.40625 1.21844 2.40625 5.35063V7.03719C2.40625 7.23677 2.48553 7.42817 2.62665 7.56929C2.76778 7.71041 2.95918 7.78969 3.15875 7.78969H5.05969C5.22545 7.93941 5.40915 8.068 5.60656 8.1725V9.065H3.82594C3.28443 9.05521 2.75383 9.21775 2.31071 9.52915C1.86759 9.84055 1.53489 10.2847 1.36063 10.7975L0.656252 13.0747C0.646078 13.1081 0.644074 13.1436 0.650407 13.1779C0.65674 13.2123 0.671227 13.2447 0.692653 13.2724C0.714078 13.3 0.741817 13.3221 0.773545 13.3368C0.805273 13.3515 0.840064 13.3584 0.875002 13.3569H13.125C13.1599 13.3584 13.1947 13.3515 13.2265 13.3368C13.2582 13.3221 13.2859 13.3 13.3074 13.2724C13.3288 13.2447 13.3433 13.2123 13.3496 13.1779C13.3559 13.1436 13.3539 13.1081 13.3438 13.0747ZM6.78125 12.2741L5.63719 10.1588C5.94822 10.4638 6.34951 10.6603 6.78125 10.7188V12.2741ZM7.21875 10.7188C7.65036 10.6613 8.05176 10.4656 8.36281 10.1609L7.21875 12.2741V10.7188ZM5.90625 7.84219H5.89531C5.67207 7.7368 5.46801 7.59484 5.29156 7.42219C5.08601 7.23112 4.92175 6.99999 4.80889 6.74305C4.69602 6.4861 4.63695 6.20877 4.63531 5.92813V4.48657C5.53875 4.43407 6.15125 4.04907 6.50781 3.54157C7.06344 4.06657 8.18563 4.44719 9.35156 4.49094V5.92157C9.38219 7.55125 7.38938 8.58813 5.90625 7.84219ZM9.79344 4.97438C9.85698 4.96148 9.9226 4.96286 9.98554 4.97842C10.0485 4.99399 10.1072 5.02335 10.1574 5.06438C10.2076 5.10542 10.248 5.15709 10.2758 5.21568C10.3036 5.27426 10.318 5.33829 10.318 5.40313C10.318 5.46797 10.3036 5.53199 10.2758 5.59058C10.248 5.64916 10.2076 5.70084 10.1574 5.74187C10.1072 5.78291 10.0485 5.81227 9.98554 5.82783C9.9226 5.8434 9.85698 5.84478 9.79344 5.83188V4.97438ZM2.84375 7.03719V5.35063C2.84375 1.60344 7.30188 -0.336872 9.93781 2.29907C10.3251 2.68385 10.6322 3.14163 10.8413 3.64591C11.0505 4.15019 11.1575 4.69095 11.1563 5.23688V7.03719C11.1557 7.12056 11.1223 7.20035 11.0634 7.2593C11.0044 7.31825 10.9246 7.35162 10.8413 7.35219H9.32969C9.56014 7.0315 9.71019 6.66015 9.76719 6.26938C9.89092 6.28896 10.0174 6.28176 10.1381 6.24824C10.2588 6.21473 10.3709 6.15569 10.4668 6.07511C10.5627 5.99454 10.6402 5.89431 10.6941 5.78121C10.7479 5.6681 10.7768 5.54475 10.7789 5.4195C10.7809 5.29425 10.7561 5.17002 10.706 5.05521C10.6559 4.94039 10.5817 4.83768 10.4885 4.754C10.3953 4.67032 10.2852 4.60763 10.1656 4.57018C10.0461 4.53272 9.91993 4.52136 9.79563 4.53688C9.80008 4.45819 9.80008 4.37931 9.79563 4.30063C9.79902 4.26995 9.79589 4.23889 9.78643 4.20951C9.77696 4.18013 9.76139 4.15308 9.74073 4.13014C9.72007 4.10721 9.69478 4.08891 9.66654 4.07644C9.6383 4.06398 9.60775 4.05763 9.57688 4.05782C8.40438 4.05782 7.17063 3.65094 6.73313 3.13688C6.81625 2.88969 7.10063 2.09782 6.67844 2.06938C6.62042 2.06938 6.56478 2.09242 6.52376 2.13345C6.48274 2.17447 6.45969 2.23011 6.45969 2.28813C6.46298 2.54892 6.41156 2.8075 6.30875 3.04719C6.01781 3.68813 5.35719 4.05782 4.42313 4.05782C4.36511 4.05782 4.30947 4.08086 4.26845 4.12189C4.22742 4.16291 4.20438 4.21855 4.20438 4.27657V4.53688C4.08007 4.52136 3.95389 4.53272 3.83436 4.57018C3.71482 4.60763 3.60472 4.67032 3.5115 4.754C3.41828 4.83768 3.34412 4.94039 3.29402 5.05521C3.24392 5.17002 3.21906 5.29425 3.22112 5.4195C3.22317 5.54475 3.2521 5.6681 3.30594 5.78121C3.35978 5.89431 3.43727 5.99454 3.53319 6.07511C3.6291 6.15569 3.7412 6.21473 3.8619 6.24824C3.9826 6.28176 4.10909 6.28896 4.23281 6.26938C4.28906 6.66035 4.43918 7.03188 4.67031 7.35219H3.16094C3.07719 7.35219 2.99685 7.31907 2.93742 7.26006C2.878 7.20105 2.84433 7.12093 2.84375 7.03719ZM4.20656 5.83188C4.14302 5.84478 4.07741 5.8434 4.01447 5.82783C3.95153 5.81227 3.89283 5.78291 3.84263 5.74187C3.79243 5.70084 3.75197 5.64916 3.72419 5.59058C3.69641 5.53199 3.682 5.46797 3.682 5.40313C3.682 5.33829 3.69641 5.27426 3.72419 5.21568C3.75197 5.15709 3.79243 5.10542 3.84263 5.06438C3.89283 5.02335 3.95153 4.99399 4.01447 4.97842C4.07741 4.96286 4.14302 4.96148 4.20656 4.97438V5.83188ZM7 8.53125C7.32544 8.5309 7.64853 8.47618 7.95594 8.36938V9.2925C7.95594 9.35052 7.97899 9.40616 8.02001 9.44718C8.06103 9.48821 8.11667 9.51125 8.17469 9.51125H8.47219C8.06969 9.84375 7.56 10.3381 7 10.2944C6.43781 10.3359 5.9325 9.83719 5.52781 9.5025H5.82531C5.88333 9.5025 5.93897 9.47946 5.97999 9.43843C6.02102 9.39741 6.04406 9.34177 6.04406 9.28375V8.36281C6.35128 8.47115 6.67426 8.52806 7 8.53125ZM1.78063 10.9375C1.92659 10.514 2.20336 10.1478 2.571 9.89185C2.93863 9.63588 3.37809 9.50337 3.82594 9.51344H4.78625L6.6325 12.9303H1.16375L1.78063 10.9375ZM7.3675 12.9303L9.21375 9.51344H10.1741C10.6219 9.50337 11.0614 9.63588 11.429 9.89185C11.7966 10.1478 12.0734 10.514 12.2194 10.9375L12.8297 12.9303H7.3675Z" fill="white"/>
<path d="M6.49904 5.58468C6.48974 5.42999 6.42175 5.28468 6.30893 5.17843C6.19611 5.07218 6.04698 5.01302 5.892 5.01302C5.73703 5.01302 5.5879 5.07218 5.47508 5.17843C5.36226 5.28468 5.29426 5.42999 5.28497 5.58468C5.28497 5.6427 5.30802 5.69834 5.34904 5.73936C5.39007 5.78039 5.44571 5.80343 5.50372 5.80343C5.56174 5.80343 5.61738 5.78039 5.6584 5.73936C5.69943 5.69834 5.72247 5.6427 5.72247 5.58468C5.72721 5.54304 5.74711 5.5046 5.77838 5.47669C5.80965 5.44877 5.85009 5.43335 5.892 5.43335C5.93392 5.43335 5.97436 5.44877 6.00563 5.47669C6.0369 5.5046 6.0568 5.54304 6.06154 5.58468C6.06154 5.6427 6.08458 5.69834 6.12561 5.73936C6.16663 5.78039 6.22227 5.80343 6.28029 5.80343C6.3383 5.80343 6.39394 5.78039 6.43497 5.73936C6.47599 5.69834 6.49904 5.6427 6.49904 5.58468Z" fill="white"/>
<path d="M7.71966 5.80344C7.77768 5.80344 7.83332 5.78039 7.87434 5.73937C7.91536 5.69835 7.93841 5.64271 7.93841 5.58469C7.94315 5.54305 7.96305 5.5046 7.99432 5.47669C8.02558 5.44878 8.06603 5.43335 8.10794 5.43335C8.14985 5.43335 8.1903 5.44878 8.22157 5.47669C8.25284 5.5046 8.27273 5.54305 8.27747 5.58469C8.27747 5.64271 8.30052 5.69835 8.34154 5.73937C8.38257 5.78039 8.43821 5.80344 8.49622 5.80344C8.55424 5.80344 8.60988 5.78039 8.6509 5.73937C8.69193 5.69835 8.71497 5.64271 8.71497 5.58469C8.71994 5.50191 8.70793 5.41899 8.67967 5.34102C8.65142 5.26305 8.60751 5.19169 8.55065 5.13131C8.4938 5.07094 8.42519 5.02283 8.34906 4.98995C8.27293 4.95707 8.19087 4.94011 8.10794 4.94011C8.02501 4.94011 7.94296 4.95707 7.86682 4.98995C7.79069 5.02283 7.72209 5.07094 7.66523 5.13131C7.60838 5.19169 7.56447 5.26305 7.53621 5.34102C7.50795 5.41899 7.49594 5.50191 7.50091 5.58469C7.50091 5.64271 7.52396 5.69835 7.56498 5.73937C7.606 5.78039 7.66164 5.80344 7.71966 5.80344Z" fill="white"/>
<path d="M7.60592 6.70688C7.60592 6.64886 7.58287 6.59322 7.54185 6.5522C7.50082 6.51118 7.44518 6.48813 7.38717 6.48813C7.32915 6.48813 7.27351 6.51118 7.23249 6.5522C7.19146 6.59322 7.16842 6.64886 7.16842 6.70688C7.16842 6.75155 7.15067 6.79439 7.11908 6.82598C7.0875 6.85757 7.04465 6.87532 6.99998 6.87532C6.95531 6.87532 6.91247 6.85757 6.88088 6.82598C6.84929 6.79439 6.83154 6.75155 6.83154 6.70688C6.83154 6.64886 6.8085 6.59322 6.76747 6.5522C6.72645 6.51118 6.67081 6.48813 6.61279 6.48813C6.55478 6.48813 6.49914 6.51118 6.45811 6.5522C6.41709 6.59322 6.39404 6.64886 6.39404 6.70688C6.39404 6.86758 6.45788 7.02171 6.57152 7.13534C6.68515 7.24898 6.83928 7.31282 6.99998 7.31282C7.16069 7.31282 7.31481 7.24898 7.42844 7.13534C7.54208 7.02171 7.60592 6.86758 7.60592 6.70688Z" fill="white"/>
<path d="M10.4847 11.3028V11.1016C10.4847 11.0435 10.4616 10.9879 10.4206 10.9469C10.3796 10.9059 10.324 10.8828 10.2659 10.8828C10.2079 10.8828 10.1523 10.9059 10.1113 10.9469C10.0702 10.9879 10.0472 11.0435 10.0472 11.1016V11.3028H9.84375C9.78573 11.3028 9.73009 11.3259 9.68907 11.3669C9.64805 11.4079 9.625 11.4635 9.625 11.5216C9.625 11.5796 9.64805 11.6352 9.68907 11.6762C9.73009 11.7173 9.78573 11.7403 9.84375 11.7403H10.045V11.9416C10.045 11.9996 10.068 12.0552 10.1091 12.0962C10.1501 12.1373 10.2057 12.1603 10.2637 12.1603C10.3218 12.1603 10.3774 12.1373 10.4184 12.0962C10.4595 12.0552 10.4825 11.9996 10.4825 11.9416V11.7403H10.6838C10.7418 11.7403 10.7974 11.7173 10.8384 11.6762C10.8795 11.6352 10.9025 11.5796 10.9025 11.5216C10.9025 11.4635 10.8795 11.4079 10.8384 11.3669C10.7974 11.3259 10.7418 11.3028 10.6838 11.3028H10.4847Z" fill="white"/>
<path d="M10.2659 10.3884C8.76748 10.4344 8.76748 12.6088 10.2659 12.6547C11.7644 12.6066 11.7644 10.4344 10.2659 10.3884ZM10.2659 12.2172C10.0814 12.2172 9.90449 12.1439 9.77404 12.0134C9.64358 11.883 9.57029 11.7061 9.57029 11.5216C9.57029 11.3371 9.64358 11.1601 9.77404 11.0297C9.90449 10.8992 10.0814 10.8259 10.2659 10.8259C10.4504 10.8259 10.6273 10.8992 10.7578 11.0297C10.8883 11.1601 10.9615 11.3371 10.9615 11.5216C10.9615 11.7061 10.8883 11.883 10.7578 12.0134C10.6273 12.1439 10.4504 12.2172 10.2659 12.2172Z" fill="white"/>
</g>
<defs>
<clipPath id="clip0_6_94">
<rect width="14" height="14" fill="white"/>
</clipPath>
</defs>
</svg>
